%TF.GenerationSoftware,KiCad,Pcbnew,9.0.7*%
%TF.CreationDate,2026-02-24T21:02:27+01:00*%
%TF.ProjectId,gps,6770732e-6b69-4636-9164-5f7063625858,rev?*%
%TF.SameCoordinates,Original*%
%TF.FileFunction,Legend,Bot*%
%TF.FilePolarity,Positive*%
%FSLAX46Y46*%
G04 Gerber Fmt 4.6, Leading zero omitted, Abs format (unit mm)*
G04 Created by KiCad (PCBNEW 9.0.7) date 2026-02-24 21:02:27*
%MOMM*%
%LPD*%
G01*
G04 APERTURE LIST*
%ADD10C,0.100000*%
G04 APERTURE END LIST*
D10*
X147791353Y-38595808D02*
X147553258Y-39262475D01*
X147553258Y-39262475D02*
X147315163Y-38595808D01*
X146743734Y-38262475D02*
X146648496Y-38262475D01*
X146648496Y-38262475D02*
X146553258Y-38310094D01*
X146553258Y-38310094D02*
X146505639Y-38357713D01*
X146505639Y-38357713D02*
X146458020Y-38452951D01*
X146458020Y-38452951D02*
X146410401Y-38643427D01*
X146410401Y-38643427D02*
X146410401Y-38881522D01*
X146410401Y-38881522D02*
X146458020Y-39071998D01*
X146458020Y-39071998D02*
X146505639Y-39167236D01*
X146505639Y-39167236D02*
X146553258Y-39214856D01*
X146553258Y-39214856D02*
X146648496Y-39262475D01*
X146648496Y-39262475D02*
X146743734Y-39262475D01*
X146743734Y-39262475D02*
X146838972Y-39214856D01*
X146838972Y-39214856D02*
X146886591Y-39167236D01*
X146886591Y-39167236D02*
X146934210Y-39071998D01*
X146934210Y-39071998D02*
X146981829Y-38881522D01*
X146981829Y-38881522D02*
X146981829Y-38643427D01*
X146981829Y-38643427D02*
X146934210Y-38452951D01*
X146934210Y-38452951D02*
X146886591Y-38357713D01*
X146886591Y-38357713D02*
X146838972Y-38310094D01*
X146838972Y-38310094D02*
X146743734Y-38262475D01*
X145981829Y-39167236D02*
X145934210Y-39214856D01*
X145934210Y-39214856D02*
X145981829Y-39262475D01*
X145981829Y-39262475D02*
X146029448Y-39214856D01*
X146029448Y-39214856D02*
X145981829Y-39167236D01*
X145981829Y-39167236D02*
X145981829Y-39262475D01*
X144981830Y-39262475D02*
X145553258Y-39262475D01*
X145267544Y-39262475D02*
X145267544Y-38262475D01*
X145267544Y-38262475D02*
X145362782Y-38405332D01*
X145362782Y-38405332D02*
X145458020Y-38500570D01*
X145458020Y-38500570D02*
X145553258Y-38548189D01*
X147505639Y-39872419D02*
X147410401Y-39872419D01*
X147410401Y-39872419D02*
X147315163Y-39920038D01*
X147315163Y-39920038D02*
X147267544Y-39967657D01*
X147267544Y-39967657D02*
X147219925Y-40062895D01*
X147219925Y-40062895D02*
X147172306Y-40253371D01*
X147172306Y-40253371D02*
X147172306Y-40491466D01*
X147172306Y-40491466D02*
X147219925Y-40681942D01*
X147219925Y-40681942D02*
X147267544Y-40777180D01*
X147267544Y-40777180D02*
X147315163Y-40824800D01*
X147315163Y-40824800D02*
X147410401Y-40872419D01*
X147410401Y-40872419D02*
X147505639Y-40872419D01*
X147505639Y-40872419D02*
X147600877Y-40824800D01*
X147600877Y-40824800D02*
X147648496Y-40777180D01*
X147648496Y-40777180D02*
X147696115Y-40681942D01*
X147696115Y-40681942D02*
X147743734Y-40491466D01*
X147743734Y-40491466D02*
X147743734Y-40253371D01*
X147743734Y-40253371D02*
X147696115Y-40062895D01*
X147696115Y-40062895D02*
X147648496Y-39967657D01*
X147648496Y-39967657D02*
X147600877Y-39920038D01*
X147600877Y-39920038D02*
X147505639Y-39872419D01*
X146791353Y-39967657D02*
X146743734Y-39920038D01*
X146743734Y-39920038D02*
X146648496Y-39872419D01*
X146648496Y-39872419D02*
X146410401Y-39872419D01*
X146410401Y-39872419D02*
X146315163Y-39920038D01*
X146315163Y-39920038D02*
X146267544Y-39967657D01*
X146267544Y-39967657D02*
X146219925Y-40062895D01*
X146219925Y-40062895D02*
X146219925Y-40158133D01*
X146219925Y-40158133D02*
X146267544Y-40300990D01*
X146267544Y-40300990D02*
X146838972Y-40872419D01*
X146838972Y-40872419D02*
X146219925Y-40872419D01*
X145077068Y-39824800D02*
X145934210Y-41110514D01*
X144791353Y-39967657D02*
X144743734Y-39920038D01*
X144743734Y-39920038D02*
X144648496Y-39872419D01*
X144648496Y-39872419D02*
X144410401Y-39872419D01*
X144410401Y-39872419D02*
X144315163Y-39920038D01*
X144315163Y-39920038D02*
X144267544Y-39967657D01*
X144267544Y-39967657D02*
X144219925Y-40062895D01*
X144219925Y-40062895D02*
X144219925Y-40158133D01*
X144219925Y-40158133D02*
X144267544Y-40300990D01*
X144267544Y-40300990D02*
X144838972Y-40872419D01*
X144838972Y-40872419D02*
X144219925Y-40872419D01*
X143362782Y-39872419D02*
X143553258Y-39872419D01*
X143553258Y-39872419D02*
X143648496Y-39920038D01*
X143648496Y-39920038D02*
X143696115Y-39967657D01*
X143696115Y-39967657D02*
X143791353Y-40110514D01*
X143791353Y-40110514D02*
X143838972Y-40300990D01*
X143838972Y-40300990D02*
X143838972Y-40681942D01*
X143838972Y-40681942D02*
X143791353Y-40777180D01*
X143791353Y-40777180D02*
X143743734Y-40824800D01*
X143743734Y-40824800D02*
X143648496Y-40872419D01*
X143648496Y-40872419D02*
X143458020Y-40872419D01*
X143458020Y-40872419D02*
X143362782Y-40824800D01*
X143362782Y-40824800D02*
X143315163Y-40777180D01*
X143315163Y-40777180D02*
X143267544Y-40681942D01*
X143267544Y-40681942D02*
X143267544Y-40443847D01*
X143267544Y-40443847D02*
X143315163Y-40348609D01*
X143315163Y-40348609D02*
X143362782Y-40300990D01*
X143362782Y-40300990D02*
X143458020Y-40253371D01*
X143458020Y-40253371D02*
X143648496Y-40253371D01*
X143648496Y-40253371D02*
X143743734Y-40300990D01*
X143743734Y-40300990D02*
X143791353Y-40348609D01*
X143791353Y-40348609D02*
X143838972Y-40443847D01*
M02*
