%TF.GenerationSoftware,KiCad,Pcbnew,9.0.7*%
%TF.CreationDate,2026-02-24T21:02:26+01:00*%
%TF.ProjectId,gps,6770732e-6b69-4636-9164-5f7063625858,rev?*%
%TF.SameCoordinates,Original*%
%TF.FileFunction,Copper,L2,Bot*%
%TF.FilePolarity,Positive*%
%FSLAX46Y46*%
G04 Gerber Fmt 4.6, Leading zero omitted, Abs format (unit mm)*
G04 Created by KiCad (PCBNEW 9.0.7) date 2026-02-24 21:02:26*
%MOMM*%
%LPD*%
G01*
G04 APERTURE LIST*
%TA.AperFunction,ComponentPad*%
%ADD10C,1.700000*%
%TD*%
%TA.AperFunction,ComponentPad*%
%ADD11R,1.700000X1.700000*%
%TD*%
%TA.AperFunction,HeatsinkPad*%
%ADD12O,1.550000X0.890000*%
%TD*%
%TA.AperFunction,HeatsinkPad*%
%ADD13O,0.950000X1.250000*%
%TD*%
%TA.AperFunction,ComponentPad*%
%ADD14C,2.000000*%
%TD*%
%TA.AperFunction,ComponentPad*%
%ADD15R,2.000000X2.000000*%
%TD*%
%TA.AperFunction,ViaPad*%
%ADD16C,0.700000*%
%TD*%
%TA.AperFunction,ViaPad*%
%ADD17C,0.600000*%
%TD*%
%TA.AperFunction,Conductor*%
%ADD18C,0.500000*%
%TD*%
%TA.AperFunction,Conductor*%
%ADD19C,0.300000*%
%TD*%
G04 APERTURE END LIST*
D10*
%TO.P,SW_Up1,1,Pin_1*%
%TO.N,+3.3V*%
X151060000Y-96400000D03*
%TO.P,SW_Up1,2,Pin_2*%
%TO.N,/up button GPIO*%
X153600000Y-96400000D03*
%TD*%
D11*
%TO.P,Conn_Display1,1,Pin_1*%
%TO.N,GND*%
X119500000Y-58420000D03*
D10*
%TO.P,Conn_Display1,2,Pin_2*%
%TO.N,+3.3V*%
X119500000Y-60960000D03*
%TO.P,Conn_Display1,3,Pin_3*%
%TO.N,/I2C1_SCL*%
X119500000Y-63500000D03*
%TO.P,Conn_Display1,4,Pin_4*%
%TO.N,/I2C1_SDA*%
X119500000Y-66040000D03*
%TD*%
%TO.P,SW_Down1,1,Pin_1*%
%TO.N,+3.3V*%
X136270000Y-96400000D03*
%TO.P,SW_Down1,2,Pin_2*%
%TO.N,/down button GPIO*%
X138810000Y-96400000D03*
%TD*%
D11*
%TO.P,Conn_GPS1,1,Pin_1*%
%TO.N,GND*%
X175500000Y-41840000D03*
D10*
%TO.P,Conn_GPS1,2,Pin_2*%
%TO.N,+3.3V*%
X175500000Y-44380000D03*
%TO.P,Conn_GPS1,3,Pin_3*%
%TO.N,/USART6_TX*%
X175500000Y-46920000D03*
%TO.P,Conn_GPS1,4,Pin_4*%
%TO.N,/USART6_RX*%
X175500000Y-49460000D03*
%TO.P,Conn_GPS1,5,Pin_5*%
%TO.N,unconnected-(Conn_GPS1-Pin_5-Pad5)*%
X175500000Y-52000000D03*
%TD*%
D12*
%TO.P,J2,6,Shield*%
%TO.N,GND*%
X175000000Y-78200000D03*
D13*
X172300000Y-77200000D03*
X172300000Y-72200000D03*
D12*
X175000000Y-71200000D03*
%TD*%
D14*
%TO.P,BT1,1,+*%
%TO.N,+BATT*%
X123142546Y-49500000D03*
D15*
%TO.P,BT1,2,-*%
%TO.N,GND*%
X143942546Y-49500000D03*
%TD*%
D11*
%TO.P,Conn_Debug1,1,Pin_1*%
%TO.N,GND*%
X175500000Y-56880000D03*
D10*
%TO.P,Conn_Debug1,2,Pin_2*%
%TO.N,/SWCLK*%
X175500000Y-59420000D03*
%TO.P,Conn_Debug1,3,Pin_3*%
%TO.N,/SWDIO*%
X175500000Y-61960000D03*
%TO.P,Conn_Debug1,4,Pin_4*%
%TO.N,/NRST*%
X175500000Y-64500000D03*
%TO.P,Conn_Debug1,5,Pin_5*%
%TO.N,+3.3V*%
X175500000Y-67040000D03*
%TD*%
%TO.P,SW_Set1,1,Pin_1*%
%TO.N,+3.3V*%
X143560000Y-96375000D03*
%TO.P,SW_Set1,2,Pin_2*%
%TO.N,/set button GPIO*%
X146100000Y-96375000D03*
%TD*%
D16*
%TO.N,GND*%
X147900000Y-47900000D03*
X150700000Y-47900000D03*
X153100000Y-47900000D03*
X154300000Y-49300000D03*
X152000000Y-49300000D03*
X149400000Y-49300000D03*
X146600000Y-49300000D03*
X142400000Y-51000000D03*
X145300000Y-51100000D03*
X147900000Y-51100000D03*
X150700000Y-51100000D03*
X153100000Y-51200000D03*
X154200000Y-52800000D03*
X152000000Y-52800000D03*
X149300000Y-52800000D03*
X146600000Y-52800000D03*
X143800000Y-52700000D03*
X141200000Y-52700000D03*
X150500000Y-58500000D03*
X149600000Y-56400000D03*
X148500000Y-54700000D03*
X147200000Y-56600000D03*
X148200000Y-58000000D03*
X145900000Y-58000000D03*
X152100000Y-59500000D03*
X149400000Y-59500000D03*
X146900000Y-59500000D03*
X144800000Y-59500000D03*
X145800000Y-61000000D03*
X151200000Y-61000000D03*
X147800000Y-61000000D03*
X144400000Y-62600000D03*
X146400000Y-62400000D03*
X149300000Y-62500000D03*
X152700000Y-62500000D03*
X145300000Y-63700000D03*
X147700000Y-63800000D03*
X150700000Y-63800000D03*
X156200000Y-60200000D03*
X154700000Y-61200000D03*
X154700000Y-59300000D03*
X157800000Y-59300000D03*
X160200000Y-59400000D03*
X162700000Y-59500000D03*
X167300000Y-59400000D03*
X165100000Y-59400000D03*
X166400000Y-58100000D03*
X168300000Y-58100000D03*
X167200000Y-60600000D03*
X164700000Y-60700000D03*
X162200000Y-60700000D03*
X159900000Y-60700000D03*
X157800000Y-60900000D03*
X156200000Y-62200000D03*
X154300000Y-63700000D03*
X152700000Y-64800000D03*
X152700000Y-66000000D03*
X150600000Y-66000000D03*
X148800000Y-66000000D03*
X148800000Y-64900000D03*
X146400000Y-64900000D03*
X144600000Y-64900000D03*
X157800000Y-43600000D03*
X157700000Y-46500000D03*
X157800000Y-49200000D03*
X157800000Y-52200000D03*
X165800000Y-46600000D03*
X165500000Y-49200000D03*
X165500000Y-52100000D03*
X165300000Y-54800000D03*
X165200000Y-56900000D03*
X163000000Y-43600000D03*
X163000000Y-46500000D03*
X163000000Y-49200000D03*
X162800000Y-52100000D03*
X162900000Y-54800000D03*
X162900000Y-56900000D03*
X160200000Y-57100000D03*
X160200000Y-54900000D03*
X160100000Y-52200000D03*
X160100000Y-49200000D03*
X160200000Y-46500000D03*
X160200000Y-43600000D03*
X164100000Y-55900000D03*
X161400000Y-55900000D03*
X158900000Y-55900000D03*
X164100000Y-58000000D03*
X161600000Y-58000000D03*
X158800000Y-58000000D03*
X164100000Y-53500000D03*
X161400000Y-53400000D03*
X158900000Y-53400000D03*
X164100000Y-50500000D03*
X161400000Y-50500000D03*
X158800000Y-50500000D03*
X164100000Y-47700000D03*
X161400000Y-47500000D03*
X158800000Y-47500000D03*
X164100000Y-44800000D03*
X161400000Y-44800000D03*
X158800000Y-44700000D03*
X164100000Y-42200000D03*
X161400000Y-42200000D03*
X158800000Y-42200000D03*
X166600000Y-41500000D03*
X166600000Y-42500000D03*
X166600000Y-57300000D03*
X167500000Y-57300000D03*
X168500000Y-57300000D03*
X166600000Y-56500000D03*
X157100000Y-57500000D03*
X155800000Y-57600000D03*
X154700000Y-57500000D03*
X157400000Y-56500000D03*
X157400000Y-54300000D03*
X154700000Y-56300000D03*
X154700000Y-54700000D03*
X166700000Y-38300000D03*
X173400000Y-41100000D03*
X173400000Y-42300000D03*
X170800000Y-40500000D03*
X169700000Y-40500000D03*
X169700000Y-41600000D03*
X165100000Y-75100000D03*
X132900000Y-76000000D03*
X147300000Y-86000000D03*
X174800000Y-89400000D03*
X138200000Y-82000000D03*
X120000000Y-85530000D03*
X173400000Y-89400000D03*
X141170000Y-94970000D03*
X168400000Y-79800000D03*
X157900000Y-88540000D03*
X168700000Y-40500000D03*
X125200000Y-58000000D03*
X140632070Y-68070331D03*
X148860000Y-88460000D03*
X170400000Y-79800000D03*
X150750000Y-93770000D03*
X170800000Y-41600000D03*
D17*
X134400000Y-71800000D03*
D16*
X148100000Y-69600000D03*
X137700000Y-64100000D03*
X147000000Y-76800000D03*
X172100000Y-41000000D03*
X164200000Y-38300000D03*
X125210000Y-92430000D03*
X173400000Y-90200000D03*
X162600000Y-84000000D03*
X159500000Y-69400000D03*
X143400000Y-59600000D03*
X125000000Y-72000000D03*
X139650000Y-73223320D03*
%TO.N,+BATT*%
X133700000Y-61200000D03*
X133700000Y-63400000D03*
%TO.N,+3.3V*%
X170600000Y-66500000D03*
X138800000Y-87100000D03*
X145200000Y-69300000D03*
X159400000Y-72700000D03*
X140400000Y-84200000D03*
X161100000Y-72700000D03*
X121900000Y-66700000D03*
X125600000Y-80600000D03*
X140400000Y-82669000D03*
X121900000Y-65300000D03*
X167900000Y-66500000D03*
X141100000Y-69300000D03*
X152100000Y-77300000D03*
X119990000Y-88590000D03*
X121900000Y-61900000D03*
X120000000Y-91190000D03*
X121900000Y-63300000D03*
X131800000Y-84400000D03*
X153300000Y-76300000D03*
X127500000Y-81200000D03*
X131500000Y-90100000D03*
X131500000Y-88500000D03*
X141100000Y-87100000D03*
X131700000Y-81800000D03*
%TO.N,/NRST*%
X144700000Y-79700000D03*
X160300000Y-76200000D03*
X141200000Y-73700000D03*
X160300000Y-73900000D03*
X144700000Y-76800000D03*
X142300000Y-74800000D03*
%TO.N,/BOOT0*%
X139700000Y-75000000D03*
X140900000Y-72300000D03*
X133200000Y-81800000D03*
X136300000Y-90020000D03*
X140800000Y-91700000D03*
X140303342Y-74201286D03*
X138700000Y-91700000D03*
X136300000Y-86000000D03*
X133200000Y-84300000D03*
X138444517Y-77611000D03*
%TO.N,/I2C1_SCL*%
X127200000Y-62000000D03*
X124600000Y-62600000D03*
%TO.N,/CS*%
X122290000Y-90130000D03*
X124720000Y-84069000D03*
X122280000Y-86405000D03*
X124740000Y-82640000D03*
%TO.N,/set button GPIO*%
X145800000Y-76800000D03*
X145600000Y-89400000D03*
X145600000Y-87200000D03*
X145500000Y-80500000D03*
%TO.N,/down button GPIO*%
X142900000Y-88600000D03*
X143500000Y-74400000D03*
X143000000Y-85800000D03*
X144000000Y-80336398D03*
%TO.N,/up button GPIO*%
X152800000Y-90950000D03*
X152800000Y-92400000D03*
%TO.N,/SPI1_SCLK*%
X127140000Y-82640000D03*
X127140000Y-84230000D03*
D17*
%TO.N,/USART6_TX*%
X155600000Y-70600000D03*
X155600000Y-66350000D03*
D16*
X173300000Y-48300000D03*
X173694975Y-46505025D03*
D17*
%TO.N,/USART6_RX*%
X154400000Y-66350000D03*
X154398593Y-70597837D03*
%TD*%
D18*
%TO.N,+BATT*%
X133700000Y-63400000D02*
X133700000Y-61200000D01*
%TO.N,+3.3V*%
X120000000Y-91190000D02*
X120000000Y-88600000D01*
X140400000Y-82669000D02*
X140400000Y-84200000D01*
D19*
X152300000Y-77300000D02*
X153300000Y-76300000D01*
D18*
X120000000Y-88600000D02*
X119990000Y-88590000D01*
X131800000Y-81900000D02*
X131700000Y-81800000D01*
D19*
X152100000Y-77300000D02*
X152300000Y-77300000D01*
D18*
X159400000Y-72700000D02*
X161100000Y-72700000D01*
X167900000Y-66500000D02*
X170600000Y-66500000D01*
X131500000Y-90100000D02*
X131500000Y-88500000D01*
X126200000Y-81200000D02*
X125600000Y-80600000D01*
D19*
X141100000Y-69300000D02*
X145200000Y-69300000D01*
D18*
X131800000Y-84400000D02*
X131800000Y-81900000D01*
X121900000Y-61900000D02*
X121900000Y-63300000D01*
X121900000Y-65300000D02*
X121900000Y-66700000D01*
X138800000Y-87100000D02*
X141100000Y-87100000D01*
X127500000Y-81200000D02*
X126200000Y-81200000D01*
D19*
%TO.N,/NRST*%
X144700000Y-79700000D02*
X144700000Y-76800000D01*
X160300000Y-76200000D02*
X160300000Y-73900000D01*
X142300000Y-74800000D02*
X141200000Y-73700000D01*
%TO.N,/BOOT0*%
X138444517Y-77611000D02*
X139700000Y-76355517D01*
X140351000Y-72849000D02*
X140900000Y-72300000D01*
X140800000Y-91700000D02*
X138700000Y-91700000D01*
X136300000Y-90020000D02*
X136300000Y-86000000D01*
X140351000Y-74153628D02*
X140351000Y-72849000D01*
X133200000Y-84300000D02*
X133200000Y-81800000D01*
X140303342Y-74201286D02*
X140351000Y-74153628D01*
X139700000Y-76355517D02*
X139700000Y-75000000D01*
%TO.N,/I2C1_SCL*%
X127200000Y-62000000D02*
X125200000Y-62000000D01*
X125200000Y-62000000D02*
X124600000Y-62600000D01*
%TO.N,/CS*%
X124720000Y-84069000D02*
X124720000Y-82660000D01*
X124720000Y-82660000D02*
X124740000Y-82640000D01*
X122290000Y-86415000D02*
X122280000Y-86405000D01*
X122290000Y-90130000D02*
X122290000Y-86415000D01*
%TO.N,/set button GPIO*%
X145600000Y-89400000D02*
X145600000Y-87200000D01*
X145500000Y-80500000D02*
X145500000Y-77100000D01*
X145500000Y-77100000D02*
X145800000Y-76800000D01*
%TO.N,/down button GPIO*%
X144000000Y-74900000D02*
X143500000Y-74400000D01*
X142900000Y-85900000D02*
X143000000Y-85800000D01*
X142900000Y-88600000D02*
X142900000Y-85900000D01*
X144000000Y-80336398D02*
X144000000Y-74900000D01*
%TO.N,/up button GPIO*%
X152800000Y-92400000D02*
X152800000Y-90950000D01*
%TO.N,/SPI1_SCLK*%
X127140000Y-84230000D02*
X127140000Y-82640000D01*
%TO.N,/USART6_TX*%
X173300000Y-48300000D02*
X173300000Y-46900000D01*
X155600000Y-70600000D02*
X155600000Y-66350000D01*
X173300000Y-46900000D02*
X173694975Y-46505025D01*
%TO.N,/USART6_RX*%
X154398593Y-66351407D02*
X154400000Y-66350000D01*
X154398593Y-70597837D02*
X154398593Y-66351407D01*
%TD*%
%TA.AperFunction,Conductor*%
%TO.N,GND*%
G36*
X177442539Y-37520185D02*
G01*
X177488294Y-37572989D01*
X177499500Y-37624500D01*
X177499500Y-99875500D01*
X177479815Y-99942539D01*
X177427011Y-99988294D01*
X177375500Y-99999500D01*
X117624500Y-99999500D01*
X117557461Y-99979815D01*
X117511706Y-99927011D01*
X117500500Y-99875500D01*
X117500500Y-96293713D01*
X134919500Y-96293713D01*
X134919500Y-96506286D01*
X134952753Y-96716239D01*
X135018444Y-96918414D01*
X135114951Y-97107820D01*
X135239890Y-97279786D01*
X135390213Y-97430109D01*
X135562179Y-97555048D01*
X135562181Y-97555049D01*
X135562184Y-97555051D01*
X135751588Y-97651557D01*
X135953757Y-97717246D01*
X136163713Y-97750500D01*
X136163714Y-97750500D01*
X136376286Y-97750500D01*
X136376287Y-97750500D01*
X136586243Y-97717246D01*
X136788412Y-97651557D01*
X136977816Y-97555051D01*
X137012230Y-97530048D01*
X137149786Y-97430109D01*
X137149788Y-97430106D01*
X137149792Y-97430104D01*
X137300104Y-97279792D01*
X137300106Y-97279788D01*
X137300109Y-97279786D01*
X137425048Y-97107820D01*
X137425047Y-97107820D01*
X137425051Y-97107816D01*
X137429514Y-97099054D01*
X137477488Y-97048259D01*
X137545308Y-97031463D01*
X137611444Y-97053999D01*
X137650486Y-97099056D01*
X137654951Y-97107820D01*
X137779890Y-97279786D01*
X137930213Y-97430109D01*
X138102179Y-97555048D01*
X138102181Y-97555049D01*
X138102184Y-97555051D01*
X138291588Y-97651557D01*
X138493757Y-97717246D01*
X138703713Y-97750500D01*
X138703714Y-97750500D01*
X138916286Y-97750500D01*
X138916287Y-97750500D01*
X139126243Y-97717246D01*
X139328412Y-97651557D01*
X139517816Y-97555051D01*
X139552230Y-97530048D01*
X139689786Y-97430109D01*
X139689788Y-97430106D01*
X139689792Y-97430104D01*
X139840104Y-97279792D01*
X139840106Y-97279788D01*
X139840109Y-97279786D01*
X139965048Y-97107820D01*
X139965047Y-97107820D01*
X139965051Y-97107816D01*
X140061557Y-96918412D01*
X140127246Y-96716243D01*
X140160500Y-96506287D01*
X140160500Y-96293713D01*
X140156540Y-96268713D01*
X142209500Y-96268713D01*
X142209500Y-96481287D01*
X142213460Y-96506287D01*
X142242753Y-96691239D01*
X142308444Y-96893414D01*
X142404951Y-97082820D01*
X142529890Y-97254786D01*
X142680213Y-97405109D01*
X142852179Y-97530048D01*
X142852181Y-97530049D01*
X142852184Y-97530051D01*
X143041588Y-97626557D01*
X143243757Y-97692246D01*
X143453713Y-97725500D01*
X143453714Y-97725500D01*
X143666286Y-97725500D01*
X143666287Y-97725500D01*
X143876243Y-97692246D01*
X144078412Y-97626557D01*
X144267816Y-97530051D01*
X144289789Y-97514086D01*
X144439786Y-97405109D01*
X144439788Y-97405106D01*
X144439792Y-97405104D01*
X144590104Y-97254792D01*
X144590106Y-97254788D01*
X144590109Y-97254786D01*
X144715048Y-97082820D01*
X144715047Y-97082820D01*
X144715051Y-97082816D01*
X144719514Y-97074054D01*
X144767488Y-97023259D01*
X144835308Y-97006463D01*
X144901444Y-97028999D01*
X144940486Y-97074056D01*
X144944951Y-97082820D01*
X145069890Y-97254786D01*
X145220213Y-97405109D01*
X145392179Y-97530048D01*
X145392181Y-97530049D01*
X145392184Y-97530051D01*
X145581588Y-97626557D01*
X145783757Y-97692246D01*
X145993713Y-97725500D01*
X145993714Y-97725500D01*
X146206286Y-97725500D01*
X146206287Y-97725500D01*
X146416243Y-97692246D01*
X146618412Y-97626557D01*
X146807816Y-97530051D01*
X146829789Y-97514086D01*
X146979786Y-97405109D01*
X146979788Y-97405106D01*
X146979792Y-97405104D01*
X147130104Y-97254792D01*
X147130106Y-97254788D01*
X147130109Y-97254786D01*
X147255048Y-97082820D01*
X147255047Y-97082820D01*
X147255051Y-97082816D01*
X147351557Y-96893412D01*
X147417246Y-96691243D01*
X147450500Y-96481287D01*
X147450500Y-96293713D01*
X149709500Y-96293713D01*
X149709500Y-96506286D01*
X149742753Y-96716239D01*
X149808444Y-96918414D01*
X149904951Y-97107820D01*
X150029890Y-97279786D01*
X150180213Y-97430109D01*
X150352179Y-97555048D01*
X150352181Y-97555049D01*
X150352184Y-97555051D01*
X150541588Y-97651557D01*
X150743757Y-97717246D01*
X150953713Y-97750500D01*
X150953714Y-97750500D01*
X151166286Y-97750500D01*
X151166287Y-97750500D01*
X151376243Y-97717246D01*
X151578412Y-97651557D01*
X151767816Y-97555051D01*
X151802230Y-97530048D01*
X151939786Y-97430109D01*
X151939788Y-97430106D01*
X151939792Y-97430104D01*
X152090104Y-97279792D01*
X152090106Y-97279788D01*
X152090109Y-97279786D01*
X152215048Y-97107820D01*
X152215047Y-97107820D01*
X152215051Y-97107816D01*
X152219514Y-97099054D01*
X152267488Y-97048259D01*
X152335308Y-97031463D01*
X152401444Y-97053999D01*
X152440486Y-97099056D01*
X152444951Y-97107820D01*
X152569890Y-97279786D01*
X152720213Y-97430109D01*
X152892179Y-97555048D01*
X152892181Y-97555049D01*
X152892184Y-97555051D01*
X153081588Y-97651557D01*
X153283757Y-97717246D01*
X153493713Y-97750500D01*
X153493714Y-97750500D01*
X153706286Y-97750500D01*
X153706287Y-97750500D01*
X153916243Y-97717246D01*
X154118412Y-97651557D01*
X154307816Y-97555051D01*
X154342230Y-97530048D01*
X154479786Y-97430109D01*
X154479788Y-97430106D01*
X154479792Y-97430104D01*
X154630104Y-97279792D01*
X154630106Y-97279788D01*
X154630109Y-97279786D01*
X154755048Y-97107820D01*
X154755047Y-97107820D01*
X154755051Y-97107816D01*
X154851557Y-96918412D01*
X154917246Y-96716243D01*
X154950500Y-96506287D01*
X154950500Y-96293713D01*
X154917246Y-96083757D01*
X154851557Y-95881588D01*
X154755051Y-95692184D01*
X154755049Y-95692181D01*
X154755048Y-95692179D01*
X154630109Y-95520213D01*
X154479786Y-95369890D01*
X154307820Y-95244951D01*
X154118414Y-95148444D01*
X154118413Y-95148443D01*
X154118412Y-95148443D01*
X153916243Y-95082754D01*
X153916241Y-95082753D01*
X153916240Y-95082753D01*
X153754957Y-95057208D01*
X153706287Y-95049500D01*
X153493713Y-95049500D01*
X153445042Y-95057208D01*
X153283760Y-95082753D01*
X153081585Y-95148444D01*
X152892179Y-95244951D01*
X152720213Y-95369890D01*
X152569890Y-95520213D01*
X152444949Y-95692182D01*
X152440484Y-95700946D01*
X152392509Y-95751742D01*
X152324688Y-95768536D01*
X152258553Y-95745998D01*
X152219516Y-95700946D01*
X152215050Y-95692182D01*
X152090109Y-95520213D01*
X151939786Y-95369890D01*
X151767820Y-95244951D01*
X151578414Y-95148444D01*
X151578413Y-95148443D01*
X151578412Y-95148443D01*
X151376243Y-95082754D01*
X151376241Y-95082753D01*
X151376240Y-95082753D01*
X151214957Y-95057208D01*
X151166287Y-95049500D01*
X150953713Y-95049500D01*
X150905042Y-95057208D01*
X150743760Y-95082753D01*
X150541585Y-95148444D01*
X150352179Y-95244951D01*
X150180213Y-95369890D01*
X150029890Y-95520213D01*
X149904951Y-95692179D01*
X149808444Y-95881585D01*
X149742753Y-96083760D01*
X149709500Y-96293713D01*
X147450500Y-96293713D01*
X147450500Y-96268713D01*
X147417246Y-96058757D01*
X147351557Y-95856588D01*
X147255051Y-95667184D01*
X147255049Y-95667181D01*
X147255048Y-95667179D01*
X147130109Y-95495213D01*
X146979786Y-95344890D01*
X146807820Y-95219951D01*
X146618414Y-95123444D01*
X146618413Y-95123443D01*
X146618412Y-95123443D01*
X146416243Y-95057754D01*
X146416241Y-95057753D01*
X146416240Y-95057753D01*
X146254957Y-95032208D01*
X146206287Y-95024500D01*
X145993713Y-95024500D01*
X145945042Y-95032208D01*
X145783760Y-95057753D01*
X145581585Y-95123444D01*
X145392179Y-95219951D01*
X145220213Y-95344890D01*
X145069890Y-95495213D01*
X144944949Y-95667182D01*
X144940484Y-95675946D01*
X144892509Y-95726742D01*
X144824688Y-95743536D01*
X144758553Y-95720998D01*
X144719516Y-95675946D01*
X144715050Y-95667182D01*
X144590109Y-95495213D01*
X144439786Y-95344890D01*
X144267820Y-95219951D01*
X144078414Y-95123444D01*
X144078413Y-95123443D01*
X144078412Y-95123443D01*
X143876243Y-95057754D01*
X143876241Y-95057753D01*
X143876240Y-95057753D01*
X143714957Y-95032208D01*
X143666287Y-95024500D01*
X143453713Y-95024500D01*
X143405042Y-95032208D01*
X143243760Y-95057753D01*
X143041585Y-95123444D01*
X142852179Y-95219951D01*
X142680213Y-95344890D01*
X142529890Y-95495213D01*
X142404951Y-95667179D01*
X142308444Y-95856585D01*
X142242753Y-96058760D01*
X142209500Y-96268713D01*
X140156540Y-96268713D01*
X140127246Y-96083757D01*
X140061557Y-95881588D01*
X139965051Y-95692184D01*
X139965049Y-95692181D01*
X139965048Y-95692179D01*
X139840109Y-95520213D01*
X139689786Y-95369890D01*
X139517820Y-95244951D01*
X139328414Y-95148444D01*
X139328413Y-95148443D01*
X139328412Y-95148443D01*
X139126243Y-95082754D01*
X139126241Y-95082753D01*
X139126240Y-95082753D01*
X138964957Y-95057208D01*
X138916287Y-95049500D01*
X138703713Y-95049500D01*
X138655042Y-95057208D01*
X138493760Y-95082753D01*
X138291585Y-95148444D01*
X138102179Y-95244951D01*
X137930213Y-95369890D01*
X137779890Y-95520213D01*
X137654949Y-95692182D01*
X137650484Y-95700946D01*
X137602509Y-95751742D01*
X137534688Y-95768536D01*
X137468553Y-95745998D01*
X137429516Y-95700946D01*
X137425050Y-95692182D01*
X137300109Y-95520213D01*
X137149786Y-95369890D01*
X136977820Y-95244951D01*
X136788414Y-95148444D01*
X136788413Y-95148443D01*
X136788412Y-95148443D01*
X136586243Y-95082754D01*
X136586241Y-95082753D01*
X136586240Y-95082753D01*
X136424957Y-95057208D01*
X136376287Y-95049500D01*
X136163713Y-95049500D01*
X136115042Y-95057208D01*
X135953760Y-95082753D01*
X135751585Y-95148444D01*
X135562179Y-95244951D01*
X135390213Y-95369890D01*
X135239890Y-95520213D01*
X135114951Y-95692179D01*
X135018444Y-95881585D01*
X134952753Y-96083760D01*
X134919500Y-96293713D01*
X117500500Y-96293713D01*
X117500500Y-88506228D01*
X119139500Y-88506228D01*
X119139500Y-88673771D01*
X119172182Y-88838074D01*
X119172184Y-88838082D01*
X119238628Y-88998492D01*
X119237097Y-88999125D01*
X119249500Y-89048625D01*
X119249500Y-90754739D01*
X119240061Y-90802192D01*
X119182184Y-90941917D01*
X119182182Y-90941925D01*
X119149500Y-91106228D01*
X119149500Y-91273771D01*
X119182182Y-91438074D01*
X119182184Y-91438082D01*
X119246295Y-91592860D01*
X119339373Y-91732162D01*
X119457837Y-91850626D01*
X119468631Y-91857838D01*
X119597137Y-91943703D01*
X119597138Y-91943703D01*
X119597139Y-91943704D01*
X119632201Y-91958227D01*
X119751918Y-92007816D01*
X119916228Y-92040499D01*
X119916232Y-92040500D01*
X119916233Y-92040500D01*
X120083768Y-92040500D01*
X120083769Y-92040499D01*
X120248082Y-92007816D01*
X120402863Y-91943703D01*
X120542162Y-91850626D01*
X120660626Y-91732162D01*
X120738091Y-91616228D01*
X137849500Y-91616228D01*
X137849500Y-91783771D01*
X137882182Y-91948074D01*
X137882184Y-91948082D01*
X137946295Y-92102860D01*
X138039373Y-92242162D01*
X138157837Y-92360626D01*
X138173959Y-92371398D01*
X138297137Y-92453703D01*
X138451918Y-92517816D01*
X138616228Y-92550499D01*
X138616232Y-92550500D01*
X138616233Y-92550500D01*
X138783768Y-92550500D01*
X138783769Y-92550499D01*
X138948082Y-92517816D01*
X139102863Y-92453703D01*
X139226041Y-92371398D01*
X139292719Y-92350520D01*
X139294932Y-92350500D01*
X140205068Y-92350500D01*
X140272107Y-92370185D01*
X140273959Y-92371398D01*
X140397137Y-92453703D01*
X140551918Y-92517816D01*
X140716228Y-92550499D01*
X140716232Y-92550500D01*
X140716233Y-92550500D01*
X140883768Y-92550500D01*
X140883769Y-92550499D01*
X141048082Y-92517816D01*
X141202863Y-92453703D01*
X141342162Y-92360626D01*
X141460626Y-92242162D01*
X141553703Y-92102863D01*
X141617816Y-91948082D01*
X141650500Y-91783767D01*
X141650500Y-91616233D01*
X141617816Y-91451918D01*
X141553703Y-91297137D01*
X141522537Y-91250494D01*
X141460626Y-91157837D01*
X141342162Y-91039373D01*
X141228224Y-90963243D01*
X141202860Y-90946295D01*
X141048082Y-90882184D01*
X141048074Y-90882182D01*
X140967868Y-90866228D01*
X151949500Y-90866228D01*
X151949500Y-91033771D01*
X151982182Y-91198074D01*
X151982184Y-91198082D01*
X152046295Y-91352860D01*
X152046296Y-91352862D01*
X152046297Y-91352863D01*
X152112488Y-91451925D01*
X152128602Y-91476040D01*
X152149480Y-91542717D01*
X152149500Y-91544931D01*
X152149500Y-91805068D01*
X152129815Y-91872107D01*
X152128602Y-91873959D01*
X152046295Y-91997139D01*
X151982184Y-92151917D01*
X151982182Y-92151925D01*
X151949500Y-92316228D01*
X151949500Y-92483771D01*
X151982182Y-92648074D01*
X151982184Y-92648082D01*
X152046295Y-92802860D01*
X152139373Y-92942162D01*
X152257837Y-93060626D01*
X152350494Y-93122537D01*
X152397137Y-93153703D01*
X152551918Y-93217816D01*
X152716228Y-93250499D01*
X152716232Y-93250500D01*
X152716233Y-93250500D01*
X152883768Y-93250500D01*
X152883769Y-93250499D01*
X153048082Y-93217816D01*
X153202863Y-93153703D01*
X153342162Y-93060626D01*
X153460626Y-92942162D01*
X153553703Y-92802863D01*
X153617816Y-92648082D01*
X153650500Y-92483767D01*
X153650500Y-92316233D01*
X153617816Y-92151918D01*
X153558127Y-92007817D01*
X153553704Y-91997139D01*
X153471398Y-91873959D01*
X153450520Y-91807281D01*
X153450500Y-91805068D01*
X153450500Y-91544931D01*
X153470185Y-91477892D01*
X153471398Y-91476040D01*
X153553703Y-91352863D01*
X153617816Y-91198082D01*
X153650500Y-91033767D01*
X153650500Y-90866233D01*
X153617816Y-90701918D01*
X153553703Y-90547137D01*
X153522537Y-90500494D01*
X153460626Y-90407837D01*
X153342162Y-90289373D01*
X153202860Y-90196295D01*
X153048082Y-90132184D01*
X153048074Y-90132182D01*
X152883771Y-90099500D01*
X152883767Y-90099500D01*
X152716233Y-90099500D01*
X152716228Y-90099500D01*
X152551925Y-90132182D01*
X152551917Y-90132184D01*
X152397139Y-90196295D01*
X152257837Y-90289373D01*
X152139373Y-90407837D01*
X152046295Y-90547139D01*
X151982184Y-90701917D01*
X151982182Y-90701925D01*
X151949500Y-90866228D01*
X140967868Y-90866228D01*
X140883771Y-90849500D01*
X140883767Y-90849500D01*
X140716233Y-90849500D01*
X140716228Y-90849500D01*
X140551925Y-90882182D01*
X140551917Y-90882184D01*
X140397139Y-90946295D01*
X140273959Y-91028602D01*
X140207281Y-91049480D01*
X140205068Y-91049500D01*
X139294932Y-91049500D01*
X139227893Y-91029815D01*
X139226041Y-91028602D01*
X139102860Y-90946295D01*
X138948082Y-90882184D01*
X138948074Y-90882182D01*
X138783771Y-90849500D01*
X138783767Y-90849500D01*
X138616233Y-90849500D01*
X138616228Y-90849500D01*
X138451925Y-90882182D01*
X138451917Y-90882184D01*
X138297139Y-90946295D01*
X138157837Y-91039373D01*
X138039373Y-91157837D01*
X137946295Y-91297139D01*
X137882184Y-91451917D01*
X137882182Y-91451925D01*
X137849500Y-91616228D01*
X120738091Y-91616228D01*
X120753703Y-91592863D01*
X120817816Y-91438082D01*
X120850500Y-91273767D01*
X120850500Y-91106233D01*
X120817816Y-90941918D01*
X120759938Y-90802191D01*
X120750500Y-90754739D01*
X120750500Y-89001118D01*
X120759939Y-88953665D01*
X120807816Y-88838082D01*
X120840500Y-88673767D01*
X120840500Y-88506233D01*
X120807816Y-88341918D01*
X120743703Y-88187137D01*
X120668080Y-88073959D01*
X120650626Y-88047837D01*
X120532162Y-87929373D01*
X120392860Y-87836295D01*
X120238082Y-87772184D01*
X120238074Y-87772182D01*
X120073771Y-87739500D01*
X120073767Y-87739500D01*
X119906233Y-87739500D01*
X119906228Y-87739500D01*
X119741925Y-87772182D01*
X119741917Y-87772184D01*
X119587139Y-87836295D01*
X119447837Y-87929373D01*
X119329373Y-88047837D01*
X119236295Y-88187139D01*
X119172184Y-88341917D01*
X119172182Y-88341925D01*
X119139500Y-88506228D01*
X117500500Y-88506228D01*
X117500500Y-86321228D01*
X121429500Y-86321228D01*
X121429500Y-86488771D01*
X121462182Y-86653074D01*
X121462184Y-86653082D01*
X121526295Y-86807860D01*
X121618602Y-86946007D01*
X121639480Y-87012685D01*
X121639500Y-87014898D01*
X121639500Y-89535068D01*
X121619815Y-89602107D01*
X121618602Y-89603959D01*
X121536295Y-89727139D01*
X121472184Y-89881917D01*
X121472182Y-89881925D01*
X121439500Y-90046228D01*
X121439500Y-90213771D01*
X121472182Y-90378074D01*
X121472184Y-90378082D01*
X121536295Y-90532860D01*
X121629373Y-90672162D01*
X121747837Y-90790626D01*
X121818464Y-90837817D01*
X121887137Y-90883703D01*
X122041918Y-90947816D01*
X122206228Y-90980499D01*
X122206232Y-90980500D01*
X122206233Y-90980500D01*
X122373768Y-90980500D01*
X122373769Y-90980499D01*
X122538082Y-90947816D01*
X122692863Y-90883703D01*
X122832162Y-90790626D01*
X122950626Y-90672162D01*
X123043703Y-90532863D01*
X123107816Y-90378082D01*
X123140500Y-90213767D01*
X123140500Y-90046233D01*
X123107816Y-89881918D01*
X123043703Y-89727137D01*
X122990875Y-89648074D01*
X122961398Y-89603959D01*
X122940520Y-89537281D01*
X122940500Y-89535068D01*
X122940500Y-88416228D01*
X130649500Y-88416228D01*
X130649500Y-88583771D01*
X130682182Y-88748074D01*
X130682184Y-88748082D01*
X130723452Y-88847712D01*
X130740061Y-88887808D01*
X130749500Y-88935261D01*
X130749500Y-89664739D01*
X130740061Y-89712192D01*
X130682184Y-89851917D01*
X130682182Y-89851925D01*
X130649500Y-90016228D01*
X130649500Y-90183771D01*
X130682182Y-90348074D01*
X130682184Y-90348082D01*
X130746295Y-90502860D01*
X130839373Y-90642162D01*
X130957837Y-90760626D01*
X131050494Y-90822537D01*
X131097137Y-90853703D01*
X131251918Y-90917816D01*
X131402740Y-90947816D01*
X131416228Y-90950499D01*
X131416232Y-90950500D01*
X131416233Y-90950500D01*
X131583768Y-90950500D01*
X131583769Y-90950499D01*
X131748082Y-90917816D01*
X131902863Y-90853703D01*
X132042162Y-90760626D01*
X132160626Y-90642162D01*
X132253703Y-90502863D01*
X132317816Y-90348082D01*
X132350500Y-90183767D01*
X132350500Y-90016233D01*
X132317816Y-89851918D01*
X132259938Y-89712191D01*
X132250500Y-89664739D01*
X132250500Y-88935261D01*
X132259939Y-88887808D01*
X132317816Y-88748082D01*
X132350500Y-88583767D01*
X132350500Y-88416233D01*
X132317816Y-88251918D01*
X132253703Y-88097137D01*
X132193663Y-88007281D01*
X132160626Y-87957837D01*
X132042162Y-87839373D01*
X131902860Y-87746295D01*
X131748082Y-87682184D01*
X131748074Y-87682182D01*
X131583771Y-87649500D01*
X131583767Y-87649500D01*
X131416233Y-87649500D01*
X131416228Y-87649500D01*
X131251925Y-87682182D01*
X131251917Y-87682184D01*
X131097139Y-87746295D01*
X130957837Y-87839373D01*
X130839373Y-87957837D01*
X130746295Y-88097139D01*
X130682184Y-88251917D01*
X130682182Y-88251925D01*
X130649500Y-88416228D01*
X122940500Y-88416228D01*
X122940500Y-86984965D01*
X122960185Y-86917926D01*
X122961398Y-86916074D01*
X123033703Y-86807863D01*
X123097816Y-86653082D01*
X123130500Y-86488767D01*
X123130500Y-86321233D01*
X123097816Y-86156918D01*
X123033703Y-86002137D01*
X122976300Y-85916228D01*
X135449500Y-85916228D01*
X135449500Y-86083771D01*
X135482182Y-86248074D01*
X135482184Y-86248082D01*
X135546295Y-86402860D01*
X135546296Y-86402862D01*
X135546297Y-86402863D01*
X135603696Y-86488767D01*
X135628602Y-86526040D01*
X135649480Y-86592717D01*
X135649500Y-86594931D01*
X135649500Y-89425068D01*
X135629815Y-89492107D01*
X135628602Y-89493959D01*
X135546295Y-89617139D01*
X135482184Y-89771917D01*
X135482182Y-89771925D01*
X135449500Y-89936228D01*
X135449500Y-90103771D01*
X135482182Y-90268074D01*
X135482184Y-90268082D01*
X135546295Y-90422860D01*
X135639373Y-90562162D01*
X135757837Y-90680626D01*
X135850494Y-90742537D01*
X135897137Y-90773703D01*
X135897138Y-90773703D01*
X135897139Y-90773704D01*
X135929569Y-90787137D01*
X136051918Y-90837816D01*
X136194756Y-90866228D01*
X136216228Y-90870499D01*
X136216232Y-90870500D01*
X136216233Y-90870500D01*
X136383768Y-90870500D01*
X136383769Y-90870499D01*
X136548082Y-90837816D01*
X136702863Y-90773703D01*
X136842162Y-90680626D01*
X136960626Y-90562162D01*
X137053703Y-90422863D01*
X137117816Y-90268082D01*
X137150500Y-90103767D01*
X137150500Y-89936233D01*
X137117816Y-89771918D01*
X137053703Y-89617137D01*
X136971398Y-89493959D01*
X136950520Y-89427281D01*
X136950500Y-89425068D01*
X136950500Y-88516228D01*
X142049500Y-88516228D01*
X142049500Y-88683771D01*
X142082182Y-88848074D01*
X142082184Y-88848082D01*
X142146295Y-89002860D01*
X142239373Y-89142162D01*
X142357837Y-89260626D01*
X142441052Y-89316228D01*
X142497137Y-89353703D01*
X142651918Y-89417816D01*
X142816228Y-89450499D01*
X142816232Y-89450500D01*
X142816233Y-89450500D01*
X142983768Y-89450500D01*
X142983769Y-89450499D01*
X143148082Y-89417816D01*
X143302863Y-89353703D01*
X143442162Y-89260626D01*
X143560626Y-89142162D01*
X143653703Y-89002863D01*
X143717816Y-88848082D01*
X143750500Y-88683767D01*
X143750500Y-88516233D01*
X143717816Y-88351918D01*
X143653703Y-88197137D01*
X143571398Y-88073959D01*
X143550520Y-88007281D01*
X143550500Y-88005068D01*
X143550500Y-87116228D01*
X144749500Y-87116228D01*
X144749500Y-87283771D01*
X144782182Y-87448074D01*
X144782184Y-87448082D01*
X144846295Y-87602860D01*
X144846296Y-87602862D01*
X144846297Y-87602863D01*
X144899296Y-87682182D01*
X144928602Y-87726040D01*
X144949480Y-87792717D01*
X144949500Y-87794931D01*
X144949500Y-88805068D01*
X144929815Y-88872107D01*
X144928602Y-88873959D01*
X144846295Y-88997139D01*
X144782184Y-89151917D01*
X144782182Y-89151925D01*
X144749500Y-89316228D01*
X144749500Y-89483771D01*
X144782182Y-89648074D01*
X144782184Y-89648082D01*
X144846295Y-89802860D01*
X144939373Y-89942162D01*
X145057837Y-90060626D01*
X145150494Y-90122537D01*
X145197137Y-90153703D01*
X145351918Y-90217816D01*
X145516228Y-90250499D01*
X145516232Y-90250500D01*
X145516233Y-90250500D01*
X145683768Y-90250500D01*
X145683769Y-90250499D01*
X145848082Y-90217816D01*
X146002863Y-90153703D01*
X146142162Y-90060626D01*
X146260626Y-89942162D01*
X146353703Y-89802863D01*
X146417816Y-89648082D01*
X146450500Y-89483767D01*
X146450500Y-89316233D01*
X146417816Y-89151918D01*
X146355352Y-89001118D01*
X146353704Y-88997139D01*
X146271398Y-88873959D01*
X146250520Y-88807281D01*
X146250500Y-88805068D01*
X146250500Y-87794931D01*
X146270185Y-87727892D01*
X146271398Y-87726040D01*
X146300702Y-87682184D01*
X146353703Y-87602863D01*
X146417816Y-87448082D01*
X146450500Y-87283767D01*
X146450500Y-87116233D01*
X146417816Y-86951918D01*
X146353703Y-86797137D01*
X146322537Y-86750494D01*
X146260626Y-86657837D01*
X146142162Y-86539373D01*
X146002860Y-86446295D01*
X145848082Y-86382184D01*
X145848074Y-86382182D01*
X145683771Y-86349500D01*
X145683767Y-86349500D01*
X145516233Y-86349500D01*
X145516228Y-86349500D01*
X145351925Y-86382182D01*
X145351917Y-86382184D01*
X145197139Y-86446295D01*
X145057837Y-86539373D01*
X144939373Y-86657837D01*
X144846295Y-86797139D01*
X144782184Y-86951917D01*
X144782182Y-86951925D01*
X144749500Y-87116228D01*
X143550500Y-87116228D01*
X143550500Y-86503650D01*
X143570185Y-86436611D01*
X143586814Y-86415973D01*
X143660626Y-86342162D01*
X143753703Y-86202863D01*
X143817816Y-86048082D01*
X143850500Y-85883767D01*
X143850500Y-85716233D01*
X143817816Y-85551918D01*
X143753703Y-85397137D01*
X143715106Y-85339373D01*
X143660626Y-85257837D01*
X143542162Y-85139373D01*
X143402860Y-85046295D01*
X143248082Y-84982184D01*
X143248074Y-84982182D01*
X143083771Y-84949500D01*
X143083767Y-84949500D01*
X142916233Y-84949500D01*
X142916228Y-84949500D01*
X142751925Y-84982182D01*
X142751917Y-84982184D01*
X142597139Y-85046295D01*
X142457837Y-85139373D01*
X142339373Y-85257837D01*
X142246295Y-85397139D01*
X142182184Y-85551917D01*
X142182182Y-85551925D01*
X142149500Y-85716228D01*
X142149500Y-85883771D01*
X142182182Y-86048074D01*
X142182184Y-86048082D01*
X142240061Y-86187808D01*
X142249500Y-86235261D01*
X142249500Y-88005068D01*
X142229815Y-88072107D01*
X142228602Y-88073959D01*
X142146295Y-88197139D01*
X142082184Y-88351917D01*
X142082182Y-88351925D01*
X142049500Y-88516228D01*
X136950500Y-88516228D01*
X136950500Y-87016228D01*
X137949500Y-87016228D01*
X137949500Y-87183771D01*
X137982182Y-87348074D01*
X137982184Y-87348082D01*
X138046295Y-87502860D01*
X138139373Y-87642162D01*
X138257837Y-87760626D01*
X138350494Y-87822537D01*
X138397137Y-87853703D01*
X138551918Y-87917816D01*
X138716228Y-87950499D01*
X138716232Y-87950500D01*
X138716233Y-87950500D01*
X138883768Y-87950500D01*
X138883769Y-87950499D01*
X139048082Y-87917816D01*
X139187808Y-87859938D01*
X139235261Y-87850500D01*
X140664739Y-87850500D01*
X140712191Y-87859938D01*
X140851918Y-87917816D01*
X141016228Y-87950499D01*
X141016232Y-87950500D01*
X141016233Y-87950500D01*
X141183768Y-87950500D01*
X141183769Y-87950499D01*
X141348082Y-87917816D01*
X141502863Y-87853703D01*
X141642162Y-87760626D01*
X141760626Y-87642162D01*
X141853703Y-87502863D01*
X141917816Y-87348082D01*
X141950500Y-87183767D01*
X141950500Y-87016233D01*
X141917816Y-86851918D01*
X141853703Y-86697137D01*
X141785411Y-86594931D01*
X141760626Y-86557837D01*
X141642162Y-86439373D01*
X141502860Y-86346295D01*
X141348082Y-86282184D01*
X141348074Y-86282182D01*
X141183771Y-86249500D01*
X141183767Y-86249500D01*
X141016233Y-86249500D01*
X141016228Y-86249500D01*
X140851925Y-86282182D01*
X140851917Y-86282184D01*
X140712192Y-86340061D01*
X140664739Y-86349500D01*
X139235261Y-86349500D01*
X139187808Y-86340061D01*
X139048082Y-86282184D01*
X139048074Y-86282182D01*
X138883771Y-86249500D01*
X138883767Y-86249500D01*
X138716233Y-86249500D01*
X138716228Y-86249500D01*
X138551925Y-86282182D01*
X138551917Y-86282184D01*
X138397139Y-86346295D01*
X138257837Y-86439373D01*
X138139373Y-86557837D01*
X138046295Y-86697139D01*
X137982184Y-86851917D01*
X137982182Y-86851925D01*
X137949500Y-87016228D01*
X136950500Y-87016228D01*
X136950500Y-86594931D01*
X136970185Y-86527892D01*
X136971398Y-86526040D01*
X137053703Y-86402863D01*
X137117816Y-86248082D01*
X137150500Y-86083767D01*
X137150500Y-85916233D01*
X137117816Y-85751918D01*
X137053703Y-85597137D01*
X137022537Y-85550494D01*
X136960626Y-85457837D01*
X136842162Y-85339373D01*
X136702860Y-85246295D01*
X136548082Y-85182184D01*
X136548074Y-85182182D01*
X136383771Y-85149500D01*
X136383767Y-85149500D01*
X136216233Y-85149500D01*
X136216228Y-85149500D01*
X136051925Y-85182182D01*
X136051917Y-85182184D01*
X135897139Y-85246295D01*
X135757837Y-85339373D01*
X135639373Y-85457837D01*
X135546295Y-85597139D01*
X135482184Y-85751917D01*
X135482182Y-85751925D01*
X135449500Y-85916228D01*
X122976300Y-85916228D01*
X122954611Y-85883768D01*
X122940629Y-85862842D01*
X122940623Y-85862834D01*
X122822162Y-85744373D01*
X122682860Y-85651295D01*
X122528082Y-85587184D01*
X122528074Y-85587182D01*
X122363771Y-85554500D01*
X122363767Y-85554500D01*
X122196233Y-85554500D01*
X122196228Y-85554500D01*
X122031925Y-85587182D01*
X122031917Y-85587184D01*
X121877139Y-85651295D01*
X121737837Y-85744373D01*
X121619373Y-85862837D01*
X121526295Y-86002139D01*
X121462184Y-86156917D01*
X121462182Y-86156925D01*
X121429500Y-86321228D01*
X117500500Y-86321228D01*
X117500500Y-83985228D01*
X123869500Y-83985228D01*
X123869500Y-84152771D01*
X123902182Y-84317074D01*
X123902184Y-84317082D01*
X123966295Y-84471860D01*
X124059373Y-84611162D01*
X124177837Y-84729626D01*
X124196599Y-84742162D01*
X124317137Y-84822703D01*
X124471918Y-84886816D01*
X124598372Y-84911969D01*
X124636228Y-84919499D01*
X124636232Y-84919500D01*
X124636233Y-84919500D01*
X124803768Y-84919500D01*
X124803769Y-84919499D01*
X124968082Y-84886816D01*
X125122863Y-84822703D01*
X125262162Y-84729626D01*
X125380626Y-84611162D01*
X125473703Y-84471863D01*
X125537816Y-84317082D01*
X125570500Y-84152767D01*
X125570500Y-83985233D01*
X125537816Y-83820918D01*
X125473703Y-83666137D01*
X125391398Y-83542959D01*
X125385747Y-83524912D01*
X125375523Y-83509003D01*
X125371071Y-83478041D01*
X125370520Y-83476281D01*
X125370500Y-83474068D01*
X125370500Y-83263239D01*
X125390185Y-83196200D01*
X125398646Y-83184575D01*
X125400621Y-83182166D01*
X125400626Y-83182162D01*
X125493703Y-83042863D01*
X125557816Y-82888082D01*
X125590500Y-82723767D01*
X125590500Y-82556233D01*
X125557816Y-82391918D01*
X125493703Y-82237137D01*
X125431063Y-82143390D01*
X125400626Y-82097837D01*
X125282162Y-81979373D01*
X125142860Y-81886295D01*
X124988082Y-81822184D01*
X124988074Y-81822182D01*
X124823771Y-81789500D01*
X124823767Y-81789500D01*
X124656233Y-81789500D01*
X124656228Y-81789500D01*
X124491925Y-81822182D01*
X124491917Y-81822184D01*
X124337139Y-81886295D01*
X124197837Y-81979373D01*
X124079373Y-82097837D01*
X123986295Y-82237139D01*
X123922184Y-82391917D01*
X123922182Y-82391925D01*
X123889500Y-82556228D01*
X123889500Y-82723771D01*
X123922182Y-82888074D01*
X123922184Y-82888082D01*
X123986295Y-83042860D01*
X124048602Y-83136108D01*
X124069480Y-83202785D01*
X124069500Y-83204999D01*
X124069500Y-83474068D01*
X124049815Y-83541107D01*
X124048602Y-83542959D01*
X123966295Y-83666139D01*
X123902184Y-83820917D01*
X123902182Y-83820925D01*
X123869500Y-83985228D01*
X117500500Y-83985228D01*
X117500500Y-80516228D01*
X124749500Y-80516228D01*
X124749500Y-80683771D01*
X124782182Y-80848074D01*
X124782184Y-80848082D01*
X124846295Y-81002860D01*
X124939373Y-81142162D01*
X125057837Y-81260626D01*
X125143430Y-81317817D01*
X125197137Y-81353703D01*
X125197138Y-81353703D01*
X125197139Y-81353704D01*
X125336866Y-81411581D01*
X125377094Y-81438461D01*
X125617049Y-81678416D01*
X125680790Y-81742157D01*
X125721585Y-81782952D01*
X125844498Y-81865080D01*
X125844511Y-81865087D01*
X125965725Y-81915295D01*
X125981087Y-81921658D01*
X125981091Y-81921658D01*
X125981092Y-81921659D01*
X126126079Y-81950500D01*
X126126082Y-81950500D01*
X126345834Y-81950500D01*
X126412873Y-81970185D01*
X126458628Y-82022989D01*
X126468572Y-82092147D01*
X126448936Y-82143390D01*
X126386298Y-82237134D01*
X126386296Y-82237138D01*
X126322184Y-82391917D01*
X126322182Y-82391925D01*
X126289500Y-82556228D01*
X126289500Y-82723771D01*
X126322182Y-82888074D01*
X126322184Y-82888082D01*
X126386295Y-83042860D01*
X126468602Y-83166040D01*
X126489480Y-83232717D01*
X126489500Y-83234931D01*
X126489500Y-83635068D01*
X126469815Y-83702107D01*
X126468602Y-83703959D01*
X126386295Y-83827139D01*
X126322184Y-83981917D01*
X126322182Y-83981925D01*
X126289500Y-84146228D01*
X126289500Y-84313771D01*
X126322182Y-84478074D01*
X126322184Y-84478082D01*
X126386295Y-84632860D01*
X126479373Y-84772162D01*
X126597837Y-84890626D01*
X126674967Y-84942162D01*
X126737137Y-84983703D01*
X126891918Y-85047816D01*
X127056228Y-85080499D01*
X127056232Y-85080500D01*
X127056233Y-85080500D01*
X127223768Y-85080500D01*
X127223769Y-85080499D01*
X127388082Y-85047816D01*
X127542863Y-84983703D01*
X127682162Y-84890626D01*
X127800626Y-84772162D01*
X127893703Y-84632863D01*
X127957816Y-84478082D01*
X127990500Y-84313767D01*
X127990500Y-84146233D01*
X127957816Y-83981918D01*
X127893703Y-83827137D01*
X127840633Y-83747712D01*
X127811398Y-83703959D01*
X127790520Y-83637281D01*
X127790500Y-83635068D01*
X127790500Y-83234931D01*
X127810185Y-83167892D01*
X127811398Y-83166040D01*
X127831398Y-83136108D01*
X127893703Y-83042863D01*
X127957816Y-82888082D01*
X127990500Y-82723767D01*
X127990500Y-82556233D01*
X127957816Y-82391918D01*
X127893703Y-82237137D01*
X127831301Y-82143746D01*
X127810423Y-82077068D01*
X127828908Y-82009688D01*
X127880887Y-81962998D01*
X127886953Y-81960293D01*
X127902863Y-81953703D01*
X128042162Y-81860626D01*
X128160626Y-81742162D01*
X128177955Y-81716228D01*
X130849500Y-81716228D01*
X130849500Y-81883771D01*
X130882182Y-82048074D01*
X130882184Y-82048082D01*
X130946295Y-82202860D01*
X131028602Y-82326040D01*
X131049480Y-82392717D01*
X131049500Y-82394931D01*
X131049500Y-83964739D01*
X131040061Y-84012192D01*
X130982184Y-84151917D01*
X130982182Y-84151925D01*
X130949500Y-84316228D01*
X130949500Y-84483771D01*
X130982182Y-84648074D01*
X130982184Y-84648082D01*
X131046295Y-84802860D01*
X131139373Y-84942162D01*
X131257837Y-85060626D01*
X131343430Y-85117817D01*
X131397137Y-85153703D01*
X131551918Y-85217816D01*
X131695093Y-85246295D01*
X131716228Y-85250499D01*
X131716232Y-85250500D01*
X131716233Y-85250500D01*
X131883768Y-85250500D01*
X131883769Y-85250499D01*
X132048082Y-85217816D01*
X132202863Y-85153703D01*
X132342162Y-85060626D01*
X132384973Y-85017815D01*
X132462319Y-84940470D01*
X132523642Y-84906985D01*
X132593334Y-84911969D01*
X132637681Y-84940470D01*
X132657837Y-84960626D01*
X132743430Y-85017817D01*
X132797137Y-85053703D01*
X132951918Y-85117816D01*
X133111206Y-85149500D01*
X133116228Y-85150499D01*
X133116232Y-85150500D01*
X133116233Y-85150500D01*
X133283768Y-85150500D01*
X133283769Y-85150499D01*
X133448082Y-85117816D01*
X133602863Y-85053703D01*
X133742162Y-84960626D01*
X133860626Y-84842162D01*
X133953703Y-84702863D01*
X134017816Y-84548082D01*
X134050500Y-84383767D01*
X134050500Y-84216233D01*
X134017816Y-84051918D01*
X133953703Y-83897137D01*
X133871398Y-83773959D01*
X133850520Y-83707281D01*
X133850500Y-83705068D01*
X133850500Y-82585228D01*
X139549500Y-82585228D01*
X139549500Y-82752771D01*
X139582182Y-82917074D01*
X139582184Y-82917082D01*
X139640061Y-83056808D01*
X139649500Y-83104261D01*
X139649500Y-83764739D01*
X139640061Y-83812191D01*
X139636444Y-83820925D01*
X139582184Y-83951917D01*
X139582182Y-83951925D01*
X139549500Y-84116228D01*
X139549500Y-84283771D01*
X139582182Y-84448074D01*
X139582184Y-84448082D01*
X139646295Y-84602860D01*
X139739373Y-84742162D01*
X139857837Y-84860626D01*
X139927219Y-84906985D01*
X139997137Y-84953703D01*
X140151918Y-85017816D01*
X140302740Y-85047816D01*
X140316228Y-85050499D01*
X140316232Y-85050500D01*
X140316233Y-85050500D01*
X140483768Y-85050500D01*
X140483769Y-85050499D01*
X140648082Y-85017816D01*
X140802863Y-84953703D01*
X140942162Y-84860626D01*
X141060626Y-84742162D01*
X141153703Y-84602863D01*
X141217816Y-84448082D01*
X141250500Y-84283767D01*
X141250500Y-84116233D01*
X141217816Y-83951918D01*
X141159938Y-83812191D01*
X141150500Y-83764739D01*
X141150500Y-83104261D01*
X141159939Y-83056808D01*
X141165715Y-83042863D01*
X141217816Y-82917082D01*
X141250500Y-82752767D01*
X141250500Y-82585233D01*
X141217816Y-82420918D01*
X141153703Y-82266137D01*
X141122537Y-82219494D01*
X141060626Y-82126837D01*
X140942162Y-82008373D01*
X140802860Y-81915295D01*
X140648082Y-81851184D01*
X140648074Y-81851182D01*
X140483771Y-81818500D01*
X140483767Y-81818500D01*
X140316233Y-81818500D01*
X140316228Y-81818500D01*
X140151925Y-81851182D01*
X140151917Y-81851184D01*
X139997139Y-81915295D01*
X139857837Y-82008373D01*
X139739373Y-82126837D01*
X139646295Y-82266139D01*
X139582184Y-82420917D01*
X139582182Y-82420925D01*
X139549500Y-82585228D01*
X133850500Y-82585228D01*
X133850500Y-82394931D01*
X133870185Y-82327892D01*
X133871398Y-82326040D01*
X133953703Y-82202863D01*
X134017816Y-82048082D01*
X134050500Y-81883767D01*
X134050500Y-81716233D01*
X134017816Y-81551918D01*
X133953703Y-81397137D01*
X133884131Y-81293015D01*
X133860626Y-81257837D01*
X133742162Y-81139373D01*
X133602860Y-81046295D01*
X133448082Y-80982184D01*
X133448074Y-80982182D01*
X133283771Y-80949500D01*
X133283767Y-80949500D01*
X133116233Y-80949500D01*
X133116228Y-80949500D01*
X132951925Y-80982182D01*
X132951917Y-80982184D01*
X132797139Y-81046295D01*
X132657837Y-81139373D01*
X132657834Y-81139376D01*
X132537681Y-81259530D01*
X132476358Y-81293015D01*
X132406666Y-81288031D01*
X132362319Y-81259530D01*
X132242162Y-81139373D01*
X132102860Y-81046295D01*
X131948082Y-80982184D01*
X131948074Y-80982182D01*
X131783771Y-80949500D01*
X131783767Y-80949500D01*
X131616233Y-80949500D01*
X131616228Y-80949500D01*
X131451925Y-80982182D01*
X131451917Y-80982184D01*
X131297139Y-81046295D01*
X131157837Y-81139373D01*
X131039373Y-81257837D01*
X130946295Y-81397139D01*
X130882184Y-81551917D01*
X130882182Y-81551925D01*
X130849500Y-81716228D01*
X128177955Y-81716228D01*
X128253703Y-81602863D01*
X128317816Y-81448082D01*
X128350500Y-81283767D01*
X128350500Y-81116233D01*
X128317816Y-80951918D01*
X128253703Y-80797137D01*
X128177954Y-80683771D01*
X128160626Y-80657837D01*
X128042162Y-80539373D01*
X127902860Y-80446295D01*
X127748082Y-80382184D01*
X127748074Y-80382182D01*
X127583771Y-80349500D01*
X127583767Y-80349500D01*
X127416233Y-80349500D01*
X127416228Y-80349500D01*
X127251925Y-80382182D01*
X127251917Y-80382184D01*
X127112192Y-80440061D01*
X127064739Y-80449500D01*
X126562229Y-80449500D01*
X126532788Y-80440855D01*
X126502802Y-80434332D01*
X126497786Y-80430577D01*
X126495190Y-80429815D01*
X126474548Y-80413181D01*
X126438461Y-80377094D01*
X126411581Y-80336866D01*
X126353704Y-80197139D01*
X126260626Y-80057837D01*
X126142162Y-79939373D01*
X126002860Y-79846295D01*
X125848082Y-79782184D01*
X125848074Y-79782182D01*
X125683771Y-79749500D01*
X125683767Y-79749500D01*
X125516233Y-79749500D01*
X125516228Y-79749500D01*
X125351925Y-79782182D01*
X125351917Y-79782184D01*
X125197139Y-79846295D01*
X125057837Y-79939373D01*
X124939373Y-80057837D01*
X124846295Y-80197139D01*
X124782184Y-80351917D01*
X124782182Y-80351925D01*
X124749500Y-80516228D01*
X117500500Y-80516228D01*
X117500500Y-77527228D01*
X137594017Y-77527228D01*
X137594017Y-77694771D01*
X137626699Y-77859074D01*
X137626701Y-77859082D01*
X137690812Y-78013860D01*
X137783890Y-78153162D01*
X137902354Y-78271626D01*
X137926161Y-78287533D01*
X138041654Y-78364703D01*
X138196435Y-78428816D01*
X138360745Y-78461499D01*
X138360749Y-78461500D01*
X138360750Y-78461500D01*
X138528285Y-78461500D01*
X138528286Y-78461499D01*
X138692599Y-78428816D01*
X138847380Y-78364703D01*
X138986679Y-78271626D01*
X139105143Y-78153162D01*
X139198220Y-78013863D01*
X139262333Y-77859082D01*
X139291235Y-77713781D01*
X139323619Y-77651870D01*
X139325113Y-77650349D01*
X140205277Y-76770186D01*
X140276465Y-76663644D01*
X140325501Y-76545261D01*
X140329823Y-76523535D01*
X140344833Y-76448074D01*
X140350500Y-76419588D01*
X140350500Y-75594931D01*
X140370185Y-75527892D01*
X140371398Y-75526040D01*
X140400702Y-75482184D01*
X140453703Y-75402863D01*
X140517816Y-75248082D01*
X140550500Y-75083767D01*
X140550500Y-75083761D01*
X140551503Y-75078719D01*
X140583888Y-75016807D01*
X140625667Y-74988349D01*
X140706205Y-74954989D01*
X140845504Y-74861912D01*
X140963968Y-74743448D01*
X141024034Y-74653552D01*
X141077646Y-74608748D01*
X141146971Y-74600041D01*
X141209998Y-74630195D01*
X141214817Y-74634763D01*
X141419345Y-74839291D01*
X141452830Y-74900614D01*
X141453281Y-74902781D01*
X141482182Y-75048074D01*
X141482184Y-75048082D01*
X141546295Y-75202860D01*
X141639373Y-75342162D01*
X141757837Y-75460626D01*
X141850494Y-75522537D01*
X141897137Y-75553703D01*
X142051918Y-75617816D01*
X142202217Y-75647712D01*
X142216228Y-75650499D01*
X142216232Y-75650500D01*
X142216233Y-75650500D01*
X142383768Y-75650500D01*
X142383769Y-75650499D01*
X142548082Y-75617816D01*
X142702863Y-75553703D01*
X142842162Y-75460626D01*
X142960626Y-75342162D01*
X143032308Y-75234883D01*
X143055748Y-75215292D01*
X143077693Y-75194024D01*
X143082308Y-75193095D01*
X143085920Y-75190077D01*
X143116229Y-75186270D01*
X143146190Y-75180242D01*
X143152309Y-75181738D01*
X143155245Y-75181370D01*
X143180556Y-75188283D01*
X143181688Y-75188725D01*
X143251918Y-75217816D01*
X143260443Y-75219511D01*
X143270646Y-75223500D01*
X143289958Y-75238434D01*
X143311590Y-75249746D01*
X143317104Y-75259426D01*
X143325918Y-75266242D01*
X143334089Y-75289244D01*
X143346173Y-75310457D01*
X143348394Y-75329512D01*
X143349307Y-75332080D01*
X143348898Y-75333827D01*
X143349500Y-75338990D01*
X143349500Y-79741466D01*
X143329815Y-79808505D01*
X143328602Y-79810357D01*
X143246295Y-79933537D01*
X143182184Y-80088315D01*
X143182182Y-80088323D01*
X143149500Y-80252626D01*
X143149500Y-80420169D01*
X143182182Y-80584472D01*
X143182184Y-80584480D01*
X143246295Y-80739258D01*
X143339373Y-80878560D01*
X143457837Y-80997024D01*
X143525396Y-81042165D01*
X143597137Y-81090101D01*
X143751918Y-81154214D01*
X143916228Y-81186897D01*
X143916232Y-81186898D01*
X143916233Y-81186898D01*
X144083768Y-81186898D01*
X144083769Y-81186897D01*
X144248082Y-81154214D01*
X144402863Y-81090101D01*
X144542162Y-80997024D01*
X144595407Y-80943779D01*
X144656730Y-80910293D01*
X144726422Y-80915277D01*
X144782355Y-80957148D01*
X144786191Y-80962569D01*
X144839370Y-81042157D01*
X144839376Y-81042165D01*
X144957837Y-81160626D01*
X145050494Y-81222537D01*
X145097137Y-81253703D01*
X145097138Y-81253703D01*
X145097139Y-81253704D01*
X145111204Y-81259530D01*
X145251918Y-81317816D01*
X145416228Y-81350499D01*
X145416232Y-81350500D01*
X145416233Y-81350500D01*
X145583768Y-81350500D01*
X145583769Y-81350499D01*
X145748082Y-81317816D01*
X145902863Y-81253703D01*
X146042162Y-81160626D01*
X146160626Y-81042162D01*
X146253703Y-80902863D01*
X146317816Y-80748082D01*
X146350500Y-80583767D01*
X146350500Y-80416233D01*
X146317816Y-80251918D01*
X146253703Y-80097137D01*
X146171398Y-79973959D01*
X146150520Y-79907281D01*
X146150500Y-79905068D01*
X146150500Y-77654970D01*
X146170185Y-77587931D01*
X146205609Y-77551868D01*
X146342162Y-77460626D01*
X146460626Y-77342162D01*
X146494600Y-77291316D01*
X146544773Y-77216228D01*
X151249500Y-77216228D01*
X151249500Y-77383771D01*
X151282182Y-77548074D01*
X151282184Y-77548082D01*
X151346295Y-77702860D01*
X151439373Y-77842162D01*
X151557837Y-77960626D01*
X151637508Y-78013860D01*
X151697137Y-78053703D01*
X151697138Y-78053703D01*
X151697139Y-78053704D01*
X151732201Y-78068227D01*
X151851918Y-78117816D01*
X152015087Y-78150272D01*
X152016228Y-78150499D01*
X152016232Y-78150500D01*
X152016233Y-78150500D01*
X152183768Y-78150500D01*
X152183769Y-78150499D01*
X152348082Y-78117816D01*
X152502863Y-78053703D01*
X152642162Y-77960626D01*
X152760626Y-77842162D01*
X152853703Y-77702863D01*
X152870158Y-77663134D01*
X152897035Y-77622909D01*
X153339293Y-77180652D01*
X153400614Y-77147169D01*
X153402781Y-77146718D01*
X153421360Y-77143022D01*
X153548082Y-77117816D01*
X153702863Y-77053703D01*
X153842162Y-76960626D01*
X153960626Y-76842162D01*
X154053703Y-76702863D01*
X154117816Y-76548082D01*
X154150500Y-76383767D01*
X154150500Y-76216233D01*
X154117816Y-76051918D01*
X154053703Y-75897137D01*
X154022537Y-75850494D01*
X153960626Y-75757837D01*
X153842162Y-75639373D01*
X153702860Y-75546295D01*
X153548082Y-75482184D01*
X153548074Y-75482182D01*
X153383771Y-75449500D01*
X153383767Y-75449500D01*
X153216233Y-75449500D01*
X153216228Y-75449500D01*
X153051925Y-75482182D01*
X153051917Y-75482184D01*
X152897139Y-75546295D01*
X152757837Y-75639373D01*
X152639373Y-75757837D01*
X152546295Y-75897139D01*
X152482184Y-76051917D01*
X152482182Y-76051923D01*
X152453281Y-76197219D01*
X152444515Y-76213975D01*
X152440496Y-76232454D01*
X152421753Y-76257490D01*
X152420896Y-76259130D01*
X152419345Y-76260708D01*
X152266872Y-76413181D01*
X152205549Y-76446666D01*
X152179191Y-76449500D01*
X152016228Y-76449500D01*
X151851925Y-76482182D01*
X151851917Y-76482184D01*
X151697139Y-76546295D01*
X151557837Y-76639373D01*
X151439373Y-76757837D01*
X151346295Y-76897139D01*
X151282184Y-77051917D01*
X151282182Y-77051925D01*
X151249500Y-77216228D01*
X146544773Y-77216228D01*
X146553703Y-77202863D01*
X146617816Y-77048082D01*
X146650500Y-76883767D01*
X146650500Y-76716233D01*
X146617816Y-76551918D01*
X146553703Y-76397137D01*
X146522537Y-76350494D01*
X146460626Y-76257837D01*
X146342162Y-76139373D01*
X146202860Y-76046295D01*
X146048082Y-75982184D01*
X146048074Y-75982182D01*
X145883771Y-75949500D01*
X145883767Y-75949500D01*
X145716233Y-75949500D01*
X145716228Y-75949500D01*
X145551925Y-75982182D01*
X145551917Y-75982184D01*
X145397140Y-76046295D01*
X145318890Y-76098580D01*
X145252213Y-76119457D01*
X145184833Y-76100972D01*
X145181110Y-76098580D01*
X145162389Y-76086071D01*
X145102863Y-76046297D01*
X145102860Y-76046295D01*
X145102859Y-76046295D01*
X144948082Y-75982184D01*
X144948074Y-75982182D01*
X144783771Y-75949500D01*
X144783767Y-75949500D01*
X144774500Y-75949500D01*
X144707461Y-75929815D01*
X144661706Y-75877011D01*
X144650500Y-75825500D01*
X144650500Y-74835928D01*
X144625502Y-74710261D01*
X144625501Y-74710260D01*
X144625501Y-74710256D01*
X144578646Y-74597139D01*
X144576466Y-74591875D01*
X144576460Y-74591865D01*
X144560713Y-74568298D01*
X144560711Y-74568296D01*
X144505277Y-74485331D01*
X144380652Y-74360706D01*
X144347169Y-74299386D01*
X144346718Y-74297218D01*
X144329953Y-74212937D01*
X144317816Y-74151918D01*
X144253703Y-73997137D01*
X144201724Y-73919345D01*
X144160626Y-73857837D01*
X144042162Y-73739373D01*
X143902860Y-73646295D01*
X143748082Y-73582184D01*
X143748074Y-73582182D01*
X143583771Y-73549500D01*
X143583767Y-73549500D01*
X143416233Y-73549500D01*
X143416228Y-73549500D01*
X143251925Y-73582182D01*
X143251917Y-73582184D01*
X143097139Y-73646295D01*
X142957837Y-73739373D01*
X142839376Y-73857834D01*
X142839373Y-73857838D01*
X142767691Y-73965117D01*
X142749168Y-73980596D01*
X142733732Y-73999159D01*
X142722841Y-74002598D01*
X142714078Y-74009922D01*
X142690125Y-74012930D01*
X142667106Y-74020200D01*
X142653160Y-74017573D01*
X142644753Y-74018629D01*
X142632076Y-74015888D01*
X142624443Y-74013814D01*
X142548082Y-73982184D01*
X142398590Y-73952448D01*
X142394459Y-73951326D01*
X142368180Y-73935181D01*
X142340870Y-73920896D01*
X142339291Y-73919345D01*
X142080654Y-73660708D01*
X142047169Y-73599385D01*
X142046718Y-73597218D01*
X142017817Y-73451925D01*
X142017816Y-73451918D01*
X141953703Y-73297137D01*
X141898176Y-73214035D01*
X141860626Y-73157837D01*
X141742165Y-73039376D01*
X141742161Y-73039373D01*
X141628660Y-72963534D01*
X141583855Y-72909922D01*
X141575148Y-72840597D01*
X141594447Y-72791544D01*
X141653703Y-72702863D01*
X141689589Y-72616228D01*
X158549500Y-72616228D01*
X158549500Y-72783771D01*
X158582182Y-72948074D01*
X158582184Y-72948082D01*
X158646295Y-73102860D01*
X158739373Y-73242162D01*
X158857837Y-73360626D01*
X158950494Y-73422537D01*
X158997137Y-73453703D01*
X159151918Y-73517816D01*
X159277457Y-73542787D01*
X159316228Y-73550499D01*
X159316232Y-73550500D01*
X159351263Y-73550500D01*
X159418302Y-73570185D01*
X159464057Y-73622989D01*
X159474001Y-73692147D01*
X159472880Y-73698691D01*
X159449500Y-73816228D01*
X159449500Y-73983771D01*
X159482182Y-74148074D01*
X159482184Y-74148082D01*
X159546295Y-74302860D01*
X159628602Y-74426040D01*
X159649480Y-74492717D01*
X159649500Y-74494931D01*
X159649500Y-75605068D01*
X159629815Y-75672107D01*
X159628602Y-75673959D01*
X159546295Y-75797139D01*
X159482184Y-75951917D01*
X159482182Y-75951925D01*
X159449500Y-76116228D01*
X159449500Y-76283771D01*
X159482182Y-76448074D01*
X159482184Y-76448082D01*
X159546295Y-76602860D01*
X159639373Y-76742162D01*
X159757837Y-76860626D01*
X159808122Y-76894225D01*
X159897137Y-76953703D01*
X160051918Y-77017816D01*
X160204037Y-77048074D01*
X160216228Y-77050499D01*
X160216232Y-77050500D01*
X160216233Y-77050500D01*
X160383768Y-77050500D01*
X160383769Y-77050499D01*
X160548082Y-77017816D01*
X160702863Y-76953703D01*
X160708406Y-76949999D01*
X171325789Y-76949999D01*
X171325790Y-76950000D01*
X172043763Y-76950000D01*
X172025000Y-76995299D01*
X172025000Y-77404701D01*
X172043763Y-77450000D01*
X171325789Y-77450000D01*
X171362466Y-77634389D01*
X171362468Y-77634397D01*
X171435964Y-77811833D01*
X171435969Y-77811842D01*
X171542667Y-77971526D01*
X171542670Y-77971530D01*
X171678471Y-78107331D01*
X171838157Y-78214030D01*
X171838167Y-78214035D01*
X172015599Y-78287530D01*
X172015606Y-78287533D01*
X172050000Y-78294373D01*
X172050000Y-77465056D01*
X172066866Y-77505775D01*
X172144225Y-77583134D01*
X172245299Y-77625000D01*
X172354701Y-77625000D01*
X172455775Y-77583134D01*
X172533134Y-77505775D01*
X172550000Y-77465056D01*
X172550000Y-78294373D01*
X172584393Y-78287532D01*
X172584400Y-78287530D01*
X172761832Y-78214035D01*
X172761842Y-78214030D01*
X172921529Y-78107331D01*
X172921530Y-78107329D01*
X173057329Y-77971530D01*
X173057332Y-77971526D01*
X173071716Y-77950000D01*
X173756216Y-77950000D01*
X174625272Y-77950000D01*
X174533386Y-77988060D01*
X174463060Y-78058386D01*
X174425000Y-78150272D01*
X174425000Y-78249728D01*
X174463060Y-78341614D01*
X174533386Y-78411940D01*
X174625272Y-78450000D01*
X173756216Y-78450000D01*
X173761316Y-78475644D01*
X173761317Y-78475649D01*
X173832548Y-78647618D01*
X173832555Y-78647631D01*
X173935970Y-78802401D01*
X173935973Y-78802405D01*
X174067594Y-78934026D01*
X174067598Y-78934029D01*
X174222368Y-79037444D01*
X174222377Y-79037449D01*
X174394353Y-79108683D01*
X174394361Y-79108685D01*
X174576921Y-79144999D01*
X174576924Y-79145000D01*
X174750000Y-79145000D01*
X174750000Y-78450000D01*
X175250000Y-78450000D01*
X175250000Y-79145000D01*
X175423076Y-79145000D01*
X175423078Y-79144999D01*
X175605638Y-79108685D01*
X175605646Y-79108683D01*
X175777622Y-79037449D01*
X175777631Y-79037444D01*
X175932401Y-78934029D01*
X175932405Y-78934026D01*
X176064026Y-78802405D01*
X176064029Y-78802401D01*
X176167444Y-78647631D01*
X176167451Y-78647618D01*
X176238682Y-78475649D01*
X176238683Y-78475644D01*
X176243784Y-78450000D01*
X175374728Y-78450000D01*
X175466614Y-78411940D01*
X175536940Y-78341614D01*
X175575000Y-78249728D01*
X175575000Y-78150272D01*
X175536940Y-78058386D01*
X175466614Y-77988060D01*
X175374728Y-77950000D01*
X176243784Y-77950000D01*
X176238683Y-77924355D01*
X176238682Y-77924350D01*
X176167451Y-77752381D01*
X176167444Y-77752368D01*
X176064029Y-77597598D01*
X176064026Y-77597594D01*
X175932405Y-77465973D01*
X175932401Y-77465970D01*
X175777631Y-77362555D01*
X175777622Y-77362550D01*
X175605646Y-77291316D01*
X175605638Y-77291314D01*
X175423077Y-77255000D01*
X175250000Y-77255000D01*
X175250000Y-77950000D01*
X174750000Y-77950000D01*
X174750000Y-77255000D01*
X174576923Y-77255000D01*
X174394361Y-77291314D01*
X174394353Y-77291316D01*
X174222377Y-77362550D01*
X174222368Y-77362555D01*
X174067598Y-77465970D01*
X174067594Y-77465973D01*
X173935973Y-77597594D01*
X173935970Y-77597598D01*
X173832555Y-77752368D01*
X173832548Y-77752381D01*
X173761317Y-77924350D01*
X173761316Y-77924355D01*
X173756216Y-77950000D01*
X173071716Y-77950000D01*
X173095477Y-77914440D01*
X173164030Y-77811842D01*
X173164035Y-77811833D01*
X173237531Y-77634397D01*
X173237533Y-77634389D01*
X173274210Y-77450000D01*
X172556237Y-77450000D01*
X172575000Y-77404701D01*
X172575000Y-76995299D01*
X172556237Y-76950000D01*
X173274210Y-76950000D01*
X173274210Y-76949999D01*
X173237533Y-76765610D01*
X173237531Y-76765602D01*
X173164035Y-76588166D01*
X173164030Y-76588157D01*
X173057332Y-76428473D01*
X173057329Y-76428469D01*
X172921530Y-76292670D01*
X172921526Y-76292667D01*
X172761842Y-76185969D01*
X172761833Y-76185964D01*
X172584397Y-76112468D01*
X172584389Y-76112466D01*
X172550000Y-76105625D01*
X172550000Y-76934943D01*
X172533134Y-76894225D01*
X172455775Y-76816866D01*
X172354701Y-76775000D01*
X172245299Y-76775000D01*
X172144225Y-76816866D01*
X172066866Y-76894225D01*
X172050000Y-76934943D01*
X172050000Y-76105625D01*
X172015610Y-76112466D01*
X172015602Y-76112468D01*
X171838166Y-76185964D01*
X171838157Y-76185969D01*
X171678473Y-76292667D01*
X171678469Y-76292670D01*
X171542670Y-76428469D01*
X171542667Y-76428473D01*
X171435969Y-76588157D01*
X171435964Y-76588166D01*
X171362468Y-76765602D01*
X171362466Y-76765610D01*
X171325789Y-76949999D01*
X160708406Y-76949999D01*
X160842162Y-76860626D01*
X160960626Y-76742162D01*
X161053703Y-76602863D01*
X161117816Y-76448082D01*
X161150500Y-76283767D01*
X161150500Y-76116233D01*
X161117816Y-75951918D01*
X161053703Y-75797137D01*
X160971398Y-75673959D01*
X160950520Y-75607281D01*
X160950500Y-75605068D01*
X160950500Y-74494931D01*
X160970185Y-74427892D01*
X160971398Y-74426040D01*
X161015051Y-74360709D01*
X161053703Y-74302863D01*
X161117816Y-74148082D01*
X161150500Y-73983767D01*
X161150500Y-73816233D01*
X161125112Y-73688596D01*
X161131339Y-73619005D01*
X161174202Y-73563827D01*
X161222533Y-73542788D01*
X161348082Y-73517816D01*
X161502863Y-73453703D01*
X161642162Y-73360626D01*
X161760626Y-73242162D01*
X161853703Y-73102863D01*
X161917816Y-72948082D01*
X161950500Y-72783767D01*
X161950500Y-72616233D01*
X161936944Y-72548082D01*
X161917817Y-72451922D01*
X161917816Y-72451919D01*
X161917815Y-72451917D01*
X161853703Y-72297137D01*
X161822537Y-72250494D01*
X161760626Y-72157837D01*
X161642162Y-72039373D01*
X161508403Y-71949999D01*
X171325789Y-71949999D01*
X171325790Y-71950000D01*
X172043763Y-71950000D01*
X172025000Y-71995299D01*
X172025000Y-72404701D01*
X172043763Y-72450000D01*
X171325789Y-72450000D01*
X171362466Y-72634389D01*
X171362468Y-72634397D01*
X171435964Y-72811833D01*
X171435969Y-72811842D01*
X171542667Y-72971526D01*
X171542670Y-72971530D01*
X171678469Y-73107329D01*
X171678473Y-73107332D01*
X171838157Y-73214030D01*
X171838167Y-73214035D01*
X172015599Y-73287530D01*
X172015606Y-73287533D01*
X172050000Y-73294373D01*
X172050000Y-72465056D01*
X172066866Y-72505775D01*
X172144225Y-72583134D01*
X172245299Y-72625000D01*
X172354701Y-72625000D01*
X172455775Y-72583134D01*
X172533134Y-72505775D01*
X172550000Y-72465056D01*
X172550000Y-73294372D01*
X172584393Y-73287533D01*
X172584400Y-73287530D01*
X172761832Y-73214035D01*
X172761842Y-73214030D01*
X172921526Y-73107332D01*
X172921530Y-73107329D01*
X173057329Y-72971530D01*
X173057332Y-72971526D01*
X173164030Y-72811842D01*
X173164035Y-72811833D01*
X173237531Y-72634397D01*
X173237533Y-72634389D01*
X173274210Y-72450000D01*
X172556237Y-72450000D01*
X172575000Y-72404701D01*
X172575000Y-71995299D01*
X172556237Y-71950000D01*
X173274210Y-71950000D01*
X173274210Y-71949999D01*
X173237533Y-71765610D01*
X173237531Y-71765602D01*
X173164035Y-71588166D01*
X173164030Y-71588157D01*
X173095477Y-71485560D01*
X173057332Y-71428473D01*
X173057329Y-71428469D01*
X172921529Y-71292669D01*
X172921526Y-71292667D01*
X172761842Y-71185969D01*
X172761833Y-71185964D01*
X172584785Y-71112628D01*
X172550000Y-71127920D01*
X172550000Y-71934943D01*
X172533134Y-71894225D01*
X172455775Y-71816866D01*
X172354701Y-71775000D01*
X172245299Y-71775000D01*
X172144225Y-71816866D01*
X172066866Y-71894225D01*
X172050000Y-71934943D01*
X172050000Y-71105625D01*
X172015610Y-71112466D01*
X172015602Y-71112468D01*
X171838166Y-71185964D01*
X171838157Y-71185969D01*
X171678473Y-71292667D01*
X171678471Y-71292669D01*
X171542670Y-71428469D01*
X171542667Y-71428473D01*
X171435969Y-71588157D01*
X171435964Y-71588166D01*
X171362468Y-71765602D01*
X171362466Y-71765610D01*
X171325789Y-71949999D01*
X161508403Y-71949999D01*
X161502860Y-71946295D01*
X161348082Y-71882184D01*
X161348074Y-71882182D01*
X161183771Y-71849500D01*
X161183767Y-71849500D01*
X161016233Y-71849500D01*
X161016228Y-71849500D01*
X160851925Y-71882182D01*
X160851917Y-71882184D01*
X160712192Y-71940061D01*
X160664739Y-71949500D01*
X159835261Y-71949500D01*
X159787808Y-71940061D01*
X159648082Y-71882184D01*
X159648074Y-71882182D01*
X159483771Y-71849500D01*
X159483767Y-71849500D01*
X159316233Y-71849500D01*
X159316228Y-71849500D01*
X159151925Y-71882182D01*
X159151917Y-71882184D01*
X158997139Y-71946295D01*
X158857837Y-72039373D01*
X158739373Y-72157837D01*
X158646295Y-72297139D01*
X158582184Y-72451917D01*
X158582182Y-72451925D01*
X158549500Y-72616228D01*
X141689589Y-72616228D01*
X141717816Y-72548082D01*
X141750500Y-72383767D01*
X141750500Y-72216233D01*
X141717816Y-72051918D01*
X141653703Y-71897137D01*
X141621873Y-71849500D01*
X141560626Y-71757837D01*
X141442162Y-71639373D01*
X141302860Y-71546295D01*
X141148082Y-71482184D01*
X141148074Y-71482182D01*
X140983771Y-71449500D01*
X140983767Y-71449500D01*
X140816233Y-71449500D01*
X140816228Y-71449500D01*
X140651925Y-71482182D01*
X140651917Y-71482184D01*
X140497139Y-71546295D01*
X140357837Y-71639373D01*
X140239373Y-71757837D01*
X140146295Y-71897139D01*
X140082184Y-72051917D01*
X140082182Y-72051923D01*
X140053281Y-72197219D01*
X140020896Y-72259130D01*
X140019345Y-72260708D01*
X139845727Y-72434325D01*
X139845726Y-72434326D01*
X139774534Y-72540874D01*
X139725499Y-72659255D01*
X139725497Y-72659261D01*
X139700500Y-72784928D01*
X139700500Y-73549977D01*
X139680815Y-73617016D01*
X139664181Y-73637658D01*
X139642718Y-73659120D01*
X139642715Y-73659123D01*
X139549637Y-73798425D01*
X139485526Y-73953203D01*
X139485524Y-73953211D01*
X139451837Y-74122567D01*
X139419452Y-74184478D01*
X139377674Y-74212937D01*
X139297137Y-74246296D01*
X139157837Y-74339373D01*
X139039373Y-74457837D01*
X138946295Y-74597139D01*
X138882184Y-74751917D01*
X138882182Y-74751925D01*
X138849500Y-74916228D01*
X138849500Y-75083771D01*
X138882182Y-75248074D01*
X138882184Y-75248082D01*
X138946295Y-75402860D01*
X138946296Y-75402862D01*
X138946297Y-75402863D01*
X138999296Y-75482182D01*
X139028602Y-75526040D01*
X139049480Y-75592717D01*
X139049500Y-75594931D01*
X139049500Y-76034709D01*
X139029815Y-76101748D01*
X139013181Y-76122390D01*
X138405225Y-76730345D01*
X138343902Y-76763830D01*
X138341736Y-76764281D01*
X138196440Y-76793182D01*
X138196434Y-76793184D01*
X138041656Y-76857295D01*
X137902354Y-76950373D01*
X137783890Y-77068837D01*
X137690812Y-77208139D01*
X137626701Y-77362917D01*
X137626699Y-77362925D01*
X137594017Y-77527228D01*
X117500500Y-77527228D01*
X117500500Y-70518990D01*
X153598093Y-70518990D01*
X153598093Y-70676683D01*
X153628854Y-70831326D01*
X153628857Y-70831338D01*
X153689195Y-70977009D01*
X153689202Y-70977022D01*
X153776803Y-71108125D01*
X153776806Y-71108129D01*
X153888300Y-71219623D01*
X153888304Y-71219626D01*
X154019407Y-71307227D01*
X154019420Y-71307234D01*
X154165091Y-71367572D01*
X154165096Y-71367574D01*
X154319746Y-71398336D01*
X154319749Y-71398337D01*
X154319751Y-71398337D01*
X154477437Y-71398337D01*
X154477438Y-71398336D01*
X154632090Y-71367574D01*
X154777772Y-71307231D01*
X154908882Y-71219626D01*
X154910528Y-71217979D01*
X154911604Y-71217391D01*
X154913592Y-71215761D01*
X154913901Y-71216137D01*
X154971847Y-71184491D01*
X155041539Y-71189470D01*
X155085899Y-71217977D01*
X155089708Y-71221786D01*
X155089713Y-71221791D01*
X155220814Y-71309390D01*
X155220827Y-71309397D01*
X155361276Y-71367572D01*
X155366503Y-71369737D01*
X155510279Y-71398336D01*
X155521153Y-71400499D01*
X155521156Y-71400500D01*
X155521158Y-71400500D01*
X155678844Y-71400500D01*
X155678845Y-71400499D01*
X155833497Y-71369737D01*
X155979179Y-71309394D01*
X156110289Y-71221789D01*
X156221789Y-71110289D01*
X156309394Y-70979179D01*
X156310288Y-70977022D01*
X156321481Y-70950000D01*
X173756216Y-70950000D01*
X174625272Y-70950000D01*
X174533386Y-70988060D01*
X174463060Y-71058386D01*
X174425000Y-71150272D01*
X174425000Y-71249728D01*
X174463060Y-71341614D01*
X174533386Y-71411940D01*
X174625272Y-71450000D01*
X173756216Y-71450000D01*
X173761316Y-71475644D01*
X173761317Y-71475649D01*
X173832548Y-71647618D01*
X173832555Y-71647631D01*
X173935970Y-71802401D01*
X173935973Y-71802405D01*
X174067594Y-71934026D01*
X174067598Y-71934029D01*
X174222368Y-72037444D01*
X174222377Y-72037449D01*
X174394353Y-72108683D01*
X174394361Y-72108685D01*
X174576921Y-72144999D01*
X174576924Y-72145000D01*
X174750000Y-72145000D01*
X174750000Y-71450000D01*
X175250000Y-71450000D01*
X175250000Y-72145000D01*
X175423076Y-72145000D01*
X175423078Y-72144999D01*
X175605638Y-72108685D01*
X175605646Y-72108683D01*
X175777622Y-72037449D01*
X175777631Y-72037444D01*
X175932401Y-71934029D01*
X175932405Y-71934026D01*
X176064026Y-71802405D01*
X176064029Y-71802401D01*
X176167444Y-71647631D01*
X176167451Y-71647618D01*
X176238682Y-71475649D01*
X176238683Y-71475644D01*
X176243784Y-71450000D01*
X175374728Y-71450000D01*
X175466614Y-71411940D01*
X175536940Y-71341614D01*
X175575000Y-71249728D01*
X175575000Y-71150272D01*
X175536940Y-71058386D01*
X175466614Y-70988060D01*
X175374728Y-70950000D01*
X176243784Y-70950000D01*
X176238683Y-70924355D01*
X176238682Y-70924350D01*
X176167451Y-70752381D01*
X176167444Y-70752368D01*
X176064029Y-70597598D01*
X176064026Y-70597594D01*
X175932405Y-70465973D01*
X175932401Y-70465970D01*
X175777631Y-70362555D01*
X175777622Y-70362550D01*
X175605646Y-70291316D01*
X175605638Y-70291314D01*
X175423077Y-70255000D01*
X175250000Y-70255000D01*
X175250000Y-70950000D01*
X174750000Y-70950000D01*
X174750000Y-70255000D01*
X174576923Y-70255000D01*
X174394361Y-70291314D01*
X174394353Y-70291316D01*
X174222377Y-70362550D01*
X174222368Y-70362555D01*
X174067598Y-70465970D01*
X174067594Y-70465973D01*
X173935973Y-70597594D01*
X173935970Y-70597598D01*
X173832555Y-70752368D01*
X173832548Y-70752381D01*
X173761317Y-70924350D01*
X173761316Y-70924355D01*
X173756216Y-70950000D01*
X156321481Y-70950000D01*
X156369735Y-70833501D01*
X156369737Y-70833497D01*
X156400500Y-70678842D01*
X156400500Y-70521158D01*
X156400500Y-70521155D01*
X156400499Y-70521153D01*
X156369738Y-70366510D01*
X156369737Y-70366503D01*
X156309394Y-70220821D01*
X156271396Y-70163953D01*
X156250520Y-70097276D01*
X156250500Y-70095064D01*
X156250500Y-66854935D01*
X156270185Y-66787896D01*
X156271366Y-66786090D01*
X156309394Y-66729179D01*
X156369737Y-66583497D01*
X156400500Y-66428842D01*
X156400500Y-66416228D01*
X167049500Y-66416228D01*
X167049500Y-66583771D01*
X167082182Y-66748074D01*
X167082184Y-66748082D01*
X167146295Y-66902860D01*
X167239373Y-67042162D01*
X167357837Y-67160626D01*
X167409354Y-67195048D01*
X167497137Y-67253703D01*
X167651918Y-67317816D01*
X167816228Y-67350499D01*
X167816232Y-67350500D01*
X167816233Y-67350500D01*
X167983768Y-67350500D01*
X167983769Y-67350499D01*
X168148082Y-67317816D01*
X168287808Y-67259938D01*
X168335261Y-67250500D01*
X170164739Y-67250500D01*
X170212191Y-67259938D01*
X170351918Y-67317816D01*
X170516228Y-67350499D01*
X170516232Y-67350500D01*
X170516233Y-67350500D01*
X170683768Y-67350500D01*
X170683769Y-67350499D01*
X170848082Y-67317816D01*
X171002863Y-67253703D01*
X171142162Y-67160626D01*
X171260626Y-67042162D01*
X171353703Y-66902863D01*
X171417816Y-66748082D01*
X171450500Y-66583767D01*
X171450500Y-66416233D01*
X171417816Y-66251918D01*
X171353703Y-66097137D01*
X171295406Y-66009890D01*
X171260626Y-65957837D01*
X171142162Y-65839373D01*
X171002860Y-65746295D01*
X170848082Y-65682184D01*
X170848074Y-65682182D01*
X170683771Y-65649500D01*
X170683767Y-65649500D01*
X170516233Y-65649500D01*
X170516228Y-65649500D01*
X170351925Y-65682182D01*
X170351917Y-65682184D01*
X170212192Y-65740061D01*
X170164739Y-65749500D01*
X168335261Y-65749500D01*
X168287808Y-65740061D01*
X168259197Y-65728210D01*
X168148082Y-65682184D01*
X168148074Y-65682182D01*
X167983771Y-65649500D01*
X167983767Y-65649500D01*
X167816233Y-65649500D01*
X167816228Y-65649500D01*
X167651925Y-65682182D01*
X167651917Y-65682184D01*
X167497139Y-65746295D01*
X167357837Y-65839373D01*
X167239373Y-65957837D01*
X167146295Y-66097139D01*
X167082184Y-66251917D01*
X167082182Y-66251925D01*
X167049500Y-66416228D01*
X156400500Y-66416228D01*
X156400500Y-66271158D01*
X156400500Y-66271155D01*
X156400499Y-66271153D01*
X156396673Y-66251917D01*
X156369737Y-66116503D01*
X156361716Y-66097139D01*
X156309397Y-65970827D01*
X156309390Y-65970814D01*
X156221789Y-65839711D01*
X156221786Y-65839707D01*
X156110292Y-65728213D01*
X156110288Y-65728210D01*
X155979185Y-65640609D01*
X155979172Y-65640602D01*
X155833501Y-65580264D01*
X155833489Y-65580261D01*
X155678845Y-65549500D01*
X155678842Y-65549500D01*
X155521158Y-65549500D01*
X155521155Y-65549500D01*
X155366510Y-65580261D01*
X155366498Y-65580264D01*
X155220827Y-65640602D01*
X155220814Y-65640609D01*
X155089711Y-65728210D01*
X155089707Y-65728213D01*
X155087681Y-65730240D01*
X155086357Y-65730962D01*
X155085001Y-65732076D01*
X155084789Y-65731818D01*
X155026358Y-65763725D01*
X154956666Y-65758741D01*
X154915060Y-65732001D01*
X154914999Y-65732076D01*
X154914360Y-65731552D01*
X154912319Y-65730240D01*
X154910292Y-65728213D01*
X154910288Y-65728210D01*
X154779185Y-65640609D01*
X154779172Y-65640602D01*
X154633501Y-65580264D01*
X154633489Y-65580261D01*
X154478845Y-65549500D01*
X154478842Y-65549500D01*
X154321158Y-65549500D01*
X154321155Y-65549500D01*
X154166510Y-65580261D01*
X154166498Y-65580264D01*
X154020827Y-65640602D01*
X154020814Y-65640609D01*
X153889711Y-65728210D01*
X153889707Y-65728213D01*
X153778213Y-65839707D01*
X153778210Y-65839711D01*
X153690609Y-65970814D01*
X153690602Y-65970827D01*
X153630264Y-66116498D01*
X153630261Y-66116510D01*
X153599500Y-66271153D01*
X153599500Y-66428846D01*
X153630261Y-66583489D01*
X153630264Y-66583501D01*
X153690602Y-66729172D01*
X153690606Y-66729179D01*
X153727195Y-66783939D01*
X153748073Y-66850614D01*
X153748093Y-66852829D01*
X153748093Y-70092901D01*
X153728408Y-70159940D01*
X153727196Y-70161791D01*
X153689201Y-70218654D01*
X153689195Y-70218665D01*
X153628857Y-70364335D01*
X153628854Y-70364347D01*
X153598093Y-70518990D01*
X117500500Y-70518990D01*
X117500500Y-69216228D01*
X140249500Y-69216228D01*
X140249500Y-69383771D01*
X140282182Y-69548074D01*
X140282184Y-69548082D01*
X140346295Y-69702860D01*
X140439373Y-69842162D01*
X140557837Y-69960626D01*
X140573959Y-69971398D01*
X140697137Y-70053703D01*
X140851918Y-70117816D01*
X141016228Y-70150499D01*
X141016232Y-70150500D01*
X141016233Y-70150500D01*
X141183768Y-70150500D01*
X141183769Y-70150499D01*
X141348082Y-70117816D01*
X141502863Y-70053703D01*
X141626041Y-69971398D01*
X141692719Y-69950520D01*
X141694932Y-69950500D01*
X144605068Y-69950500D01*
X144672107Y-69970185D01*
X144673959Y-69971398D01*
X144797137Y-70053703D01*
X144951918Y-70117816D01*
X145116228Y-70150499D01*
X145116232Y-70150500D01*
X145116233Y-70150500D01*
X145283768Y-70150500D01*
X145283769Y-70150499D01*
X145448082Y-70117816D01*
X145602863Y-70053703D01*
X145742162Y-69960626D01*
X145860626Y-69842162D01*
X145953703Y-69702863D01*
X146017816Y-69548082D01*
X146050500Y-69383767D01*
X146050500Y-69216233D01*
X146017816Y-69051918D01*
X145953703Y-68897137D01*
X145922537Y-68850494D01*
X145860626Y-68757837D01*
X145742162Y-68639373D01*
X145602860Y-68546295D01*
X145448082Y-68482184D01*
X145448074Y-68482182D01*
X145283771Y-68449500D01*
X145283767Y-68449500D01*
X145116233Y-68449500D01*
X145116228Y-68449500D01*
X144951925Y-68482182D01*
X144951917Y-68482184D01*
X144797139Y-68546295D01*
X144673959Y-68628602D01*
X144607281Y-68649480D01*
X144605068Y-68649500D01*
X141694932Y-68649500D01*
X141627893Y-68629815D01*
X141626041Y-68628602D01*
X141502860Y-68546295D01*
X141348082Y-68482184D01*
X141348074Y-68482182D01*
X141183771Y-68449500D01*
X141183767Y-68449500D01*
X141016233Y-68449500D01*
X141016228Y-68449500D01*
X140851925Y-68482182D01*
X140851917Y-68482184D01*
X140697139Y-68546295D01*
X140557837Y-68639373D01*
X140439373Y-68757837D01*
X140346295Y-68897139D01*
X140282184Y-69051917D01*
X140282182Y-69051925D01*
X140249500Y-69216228D01*
X117500500Y-69216228D01*
X117500500Y-60853713D01*
X118149500Y-60853713D01*
X118149500Y-61066286D01*
X118178942Y-61252179D01*
X118182754Y-61276243D01*
X118230613Y-61423538D01*
X118248444Y-61478414D01*
X118344951Y-61667820D01*
X118469890Y-61839786D01*
X118620213Y-61990109D01*
X118792182Y-62115050D01*
X118800946Y-62119516D01*
X118851742Y-62167491D01*
X118868536Y-62235312D01*
X118845998Y-62301447D01*
X118800946Y-62340484D01*
X118792182Y-62344949D01*
X118620213Y-62469890D01*
X118469890Y-62620213D01*
X118344951Y-62792179D01*
X118248444Y-62981585D01*
X118182753Y-63183760D01*
X118157223Y-63344951D01*
X118149500Y-63393713D01*
X118149500Y-63606287D01*
X118156120Y-63648082D01*
X118182753Y-63816239D01*
X118248444Y-64018414D01*
X118344951Y-64207820D01*
X118469890Y-64379786D01*
X118620213Y-64530109D01*
X118792182Y-64655050D01*
X118800946Y-64659516D01*
X118851742Y-64707491D01*
X118868536Y-64775312D01*
X118845998Y-64841447D01*
X118800946Y-64880484D01*
X118792182Y-64884949D01*
X118620213Y-65009890D01*
X118469890Y-65160213D01*
X118344951Y-65332179D01*
X118248444Y-65521585D01*
X118182753Y-65723760D01*
X118149500Y-65933713D01*
X118149500Y-66146286D01*
X118178942Y-66332179D01*
X118182754Y-66356243D01*
X118206344Y-66428846D01*
X118248444Y-66558414D01*
X118344951Y-66747820D01*
X118469890Y-66919786D01*
X118620213Y-67070109D01*
X118792179Y-67195048D01*
X118792181Y-67195049D01*
X118792184Y-67195051D01*
X118981588Y-67291557D01*
X119183757Y-67357246D01*
X119393713Y-67390500D01*
X119393714Y-67390500D01*
X119606286Y-67390500D01*
X119606287Y-67390500D01*
X119816243Y-67357246D01*
X120018412Y-67291557D01*
X120207816Y-67195051D01*
X120255198Y-67160626D01*
X120379786Y-67070109D01*
X120379788Y-67070106D01*
X120379792Y-67070104D01*
X120530104Y-66919792D01*
X120530106Y-66919788D01*
X120530109Y-66919786D01*
X120654858Y-66748082D01*
X120655051Y-66747816D01*
X120751557Y-66558412D01*
X120817246Y-66356243D01*
X120850500Y-66146287D01*
X120850500Y-65933713D01*
X120817246Y-65723757D01*
X120751557Y-65521588D01*
X120655051Y-65332184D01*
X120619336Y-65283026D01*
X120619335Y-65283023D01*
X120570806Y-65216228D01*
X121049500Y-65216228D01*
X121049500Y-65383771D01*
X121082182Y-65548074D01*
X121082184Y-65548082D01*
X121140061Y-65687808D01*
X121149500Y-65735261D01*
X121149500Y-66264739D01*
X121140061Y-66312192D01*
X121082184Y-66451917D01*
X121082182Y-66451925D01*
X121049500Y-66616228D01*
X121049500Y-66783771D01*
X121082182Y-66948074D01*
X121082184Y-66948082D01*
X121146295Y-67102860D01*
X121239373Y-67242162D01*
X121357837Y-67360626D01*
X121402547Y-67390500D01*
X121497137Y-67453703D01*
X121651918Y-67517816D01*
X121816228Y-67550499D01*
X121816232Y-67550500D01*
X121816233Y-67550500D01*
X121983768Y-67550500D01*
X121983769Y-67550499D01*
X122148082Y-67517816D01*
X122302863Y-67453703D01*
X122442162Y-67360626D01*
X122560626Y-67242162D01*
X122653703Y-67102863D01*
X122717816Y-66948082D01*
X122750500Y-66783767D01*
X122750500Y-66616233D01*
X122717816Y-66451918D01*
X122659938Y-66312191D01*
X122650500Y-66264739D01*
X122650500Y-65735261D01*
X122659939Y-65687808D01*
X122671659Y-65659514D01*
X122717816Y-65548082D01*
X122750500Y-65383767D01*
X122750500Y-65216233D01*
X122717816Y-65051918D01*
X122653703Y-64897137D01*
X122599651Y-64816243D01*
X122560626Y-64757837D01*
X122442162Y-64639373D01*
X122302860Y-64546295D01*
X122148082Y-64482184D01*
X122148074Y-64482182D01*
X121983771Y-64449500D01*
X121983767Y-64449500D01*
X121816233Y-64449500D01*
X121816228Y-64449500D01*
X121651925Y-64482182D01*
X121651917Y-64482184D01*
X121497139Y-64546295D01*
X121357837Y-64639373D01*
X121239373Y-64757837D01*
X121146295Y-64897139D01*
X121082184Y-65051917D01*
X121082182Y-65051925D01*
X121049500Y-65216228D01*
X120570806Y-65216228D01*
X120530109Y-65160214D01*
X120530105Y-65160209D01*
X120379786Y-65009890D01*
X120207820Y-64884951D01*
X120207115Y-64884591D01*
X120199054Y-64880485D01*
X120148259Y-64832512D01*
X120131463Y-64764692D01*
X120153999Y-64698556D01*
X120199054Y-64659515D01*
X120207816Y-64655051D01*
X120229789Y-64639086D01*
X120379786Y-64530109D01*
X120379788Y-64530106D01*
X120379792Y-64530104D01*
X120530104Y-64379792D01*
X120530106Y-64379788D01*
X120530109Y-64379786D01*
X120655048Y-64207820D01*
X120655047Y-64207820D01*
X120655051Y-64207816D01*
X120751557Y-64018412D01*
X120817246Y-63816243D01*
X120850500Y-63606287D01*
X120850500Y-63606268D01*
X120850817Y-63602250D01*
X120875702Y-63536962D01*
X120931933Y-63495491D01*
X121001659Y-63491005D01*
X121062741Y-63524928D01*
X121088996Y-63564527D01*
X121146295Y-63702860D01*
X121239373Y-63842162D01*
X121357837Y-63960626D01*
X121444323Y-64018414D01*
X121497137Y-64053703D01*
X121651918Y-64117816D01*
X121816228Y-64150499D01*
X121816232Y-64150500D01*
X121816233Y-64150500D01*
X121983768Y-64150500D01*
X121983769Y-64150499D01*
X122148082Y-64117816D01*
X122302863Y-64053703D01*
X122442162Y-63960626D01*
X122560626Y-63842162D01*
X122653703Y-63702863D01*
X122717816Y-63548082D01*
X122750500Y-63383767D01*
X122750500Y-63216233D01*
X122717816Y-63051918D01*
X122659938Y-62912191D01*
X122650500Y-62864739D01*
X122650500Y-62516228D01*
X123749500Y-62516228D01*
X123749500Y-62683771D01*
X123782182Y-62848074D01*
X123782184Y-62848082D01*
X123846295Y-63002860D01*
X123939373Y-63142162D01*
X124057837Y-63260626D01*
X124141052Y-63316228D01*
X124197137Y-63353703D01*
X124351918Y-63417816D01*
X124516228Y-63450499D01*
X124516232Y-63450500D01*
X124516233Y-63450500D01*
X124683768Y-63450500D01*
X124683769Y-63450499D01*
X124848082Y-63417816D01*
X125002863Y-63353703D01*
X125142162Y-63260626D01*
X125260626Y-63142162D01*
X125353703Y-63002863D01*
X125417816Y-62848082D01*
X125428936Y-62792179D01*
X125437265Y-62750309D01*
X125469650Y-62688398D01*
X125530366Y-62653823D01*
X125558882Y-62650500D01*
X126605068Y-62650500D01*
X126672107Y-62670185D01*
X126673959Y-62671398D01*
X126726205Y-62706307D01*
X126797137Y-62753703D01*
X126951918Y-62817816D01*
X127062370Y-62839786D01*
X127116228Y-62850499D01*
X127116232Y-62850500D01*
X127116233Y-62850500D01*
X127283768Y-62850500D01*
X127283769Y-62850499D01*
X127448082Y-62817816D01*
X127602863Y-62753703D01*
X127742162Y-62660626D01*
X127860626Y-62542162D01*
X127953703Y-62402863D01*
X128017816Y-62248082D01*
X128050500Y-62083767D01*
X128050500Y-61916233D01*
X128017816Y-61751918D01*
X127953703Y-61597137D01*
X127922537Y-61550494D01*
X127860626Y-61457837D01*
X127742162Y-61339373D01*
X127602860Y-61246295D01*
X127550729Y-61224702D01*
X127448082Y-61182184D01*
X127448074Y-61182182D01*
X127283771Y-61149500D01*
X127283767Y-61149500D01*
X127116233Y-61149500D01*
X127116228Y-61149500D01*
X126951925Y-61182182D01*
X126951917Y-61182184D01*
X126797139Y-61246295D01*
X126673959Y-61328602D01*
X126607281Y-61349480D01*
X126605068Y-61349500D01*
X125135929Y-61349500D01*
X125010261Y-61374497D01*
X125010255Y-61374499D01*
X124891875Y-61423533D01*
X124891866Y-61423538D01*
X124785331Y-61494723D01*
X124785327Y-61494726D01*
X124560709Y-61719345D01*
X124499386Y-61752830D01*
X124497219Y-61753281D01*
X124351925Y-61782182D01*
X124351917Y-61782184D01*
X124197139Y-61846295D01*
X124057837Y-61939373D01*
X123939373Y-62057837D01*
X123846295Y-62197139D01*
X123782184Y-62351917D01*
X123782182Y-62351925D01*
X123749500Y-62516228D01*
X122650500Y-62516228D01*
X122650500Y-62335261D01*
X122659939Y-62287808D01*
X122664731Y-62276239D01*
X122717816Y-62148082D01*
X122750500Y-61983767D01*
X122750500Y-61816233D01*
X122717816Y-61651918D01*
X122653703Y-61497137D01*
X122571759Y-61374499D01*
X122560626Y-61357837D01*
X122442162Y-61239373D01*
X122302860Y-61146295D01*
X122230272Y-61116228D01*
X132849500Y-61116228D01*
X132849500Y-61283771D01*
X132882182Y-61448074D01*
X132882184Y-61448082D01*
X132940061Y-61587808D01*
X132949500Y-61635261D01*
X132949500Y-62964739D01*
X132940061Y-63012192D01*
X132882184Y-63151917D01*
X132882182Y-63151925D01*
X132849500Y-63316228D01*
X132849500Y-63483771D01*
X132882182Y-63648074D01*
X132882184Y-63648082D01*
X132946295Y-63802860D01*
X133039373Y-63942162D01*
X133157837Y-64060626D01*
X133243430Y-64117817D01*
X133297137Y-64153703D01*
X133451918Y-64217816D01*
X133616228Y-64250499D01*
X133616232Y-64250500D01*
X133616233Y-64250500D01*
X133783768Y-64250500D01*
X133783769Y-64250499D01*
X133948082Y-64217816D01*
X134102863Y-64153703D01*
X134242162Y-64060626D01*
X134360626Y-63942162D01*
X134453703Y-63802863D01*
X134517816Y-63648082D01*
X134550500Y-63483767D01*
X134550500Y-63316233D01*
X134517816Y-63151918D01*
X134459938Y-63012191D01*
X134450500Y-62964739D01*
X134450500Y-61635261D01*
X134459939Y-61587808D01*
X134517816Y-61448082D01*
X134550500Y-61283767D01*
X134550500Y-61116233D01*
X134517816Y-60951918D01*
X134455090Y-60800486D01*
X134453704Y-60797139D01*
X134360626Y-60657837D01*
X134242162Y-60539373D01*
X134102860Y-60446295D01*
X133948082Y-60382184D01*
X133948074Y-60382182D01*
X133783771Y-60349500D01*
X133783767Y-60349500D01*
X133616233Y-60349500D01*
X133616228Y-60349500D01*
X133451925Y-60382182D01*
X133451917Y-60382184D01*
X133297139Y-60446295D01*
X133157837Y-60539373D01*
X133039373Y-60657837D01*
X132946295Y-60797139D01*
X132882184Y-60951917D01*
X132882182Y-60951925D01*
X132849500Y-61116228D01*
X122230272Y-61116228D01*
X122148082Y-61082184D01*
X122148074Y-61082182D01*
X121983771Y-61049500D01*
X121983767Y-61049500D01*
X121816233Y-61049500D01*
X121816228Y-61049500D01*
X121651925Y-61082182D01*
X121651917Y-61082184D01*
X121497139Y-61146295D01*
X121357837Y-61239373D01*
X121239373Y-61357837D01*
X121146295Y-61497139D01*
X121082184Y-61651917D01*
X121082182Y-61651925D01*
X121049500Y-61816228D01*
X121049500Y-61983771D01*
X121082182Y-62148074D01*
X121082184Y-62148082D01*
X121140061Y-62287808D01*
X121149500Y-62335261D01*
X121149500Y-62864739D01*
X121140061Y-62912192D01*
X121082184Y-63051917D01*
X121082182Y-63051925D01*
X121058019Y-63173401D01*
X121025634Y-63235312D01*
X120964919Y-63269886D01*
X120895149Y-63266147D01*
X120838477Y-63225280D01*
X120818471Y-63187528D01*
X120813881Y-63173401D01*
X120751557Y-62981588D01*
X120655051Y-62792184D01*
X120655049Y-62792181D01*
X120655048Y-62792179D01*
X120530109Y-62620213D01*
X120379786Y-62469890D01*
X120207820Y-62344951D01*
X120207115Y-62344591D01*
X120199054Y-62340485D01*
X120148259Y-62292512D01*
X120131463Y-62224692D01*
X120153999Y-62158556D01*
X120199054Y-62119515D01*
X120207816Y-62115051D01*
X120250875Y-62083767D01*
X120379786Y-61990109D01*
X120379788Y-61990106D01*
X120379792Y-61990104D01*
X120530104Y-61839792D01*
X120530106Y-61839788D01*
X120530109Y-61839786D01*
X120655048Y-61667820D01*
X120655047Y-61667820D01*
X120655051Y-61667816D01*
X120751557Y-61478412D01*
X120817246Y-61276243D01*
X120850500Y-61066287D01*
X120850500Y-60853713D01*
X120817246Y-60643757D01*
X120751557Y-60441588D01*
X120655051Y-60252184D01*
X120655049Y-60252181D01*
X120655048Y-60252179D01*
X120530109Y-60080213D01*
X120416181Y-59966285D01*
X120382696Y-59904962D01*
X120387680Y-59835270D01*
X120429552Y-59779337D01*
X120460529Y-59762422D01*
X120592086Y-59713354D01*
X120592093Y-59713350D01*
X120707187Y-59627190D01*
X120707190Y-59627187D01*
X120793350Y-59512093D01*
X120793354Y-59512086D01*
X120843596Y-59377379D01*
X120843598Y-59377372D01*
X120849999Y-59317844D01*
X120850000Y-59317827D01*
X120850000Y-59313713D01*
X174149500Y-59313713D01*
X174149500Y-59526286D01*
X174179128Y-59713354D01*
X174182754Y-59736243D01*
X174248319Y-59938031D01*
X174248444Y-59938414D01*
X174344951Y-60127820D01*
X174469890Y-60299786D01*
X174620213Y-60450109D01*
X174792182Y-60575050D01*
X174800946Y-60579516D01*
X174851742Y-60627491D01*
X174868536Y-60695312D01*
X174845998Y-60761447D01*
X174800946Y-60800484D01*
X174792182Y-60804949D01*
X174620213Y-60929890D01*
X174469890Y-61080213D01*
X174344951Y-61252179D01*
X174248444Y-61441585D01*
X174182753Y-61643760D01*
X174149500Y-61853713D01*
X174149500Y-62066286D01*
X174178293Y-62248082D01*
X174182754Y-62276243D01*
X174207342Y-62351918D01*
X174248444Y-62478414D01*
X174344951Y-62667820D01*
X174469890Y-62839786D01*
X174620213Y-62990109D01*
X174792182Y-63115050D01*
X174800946Y-63119516D01*
X174851742Y-63167491D01*
X174868536Y-63235312D01*
X174845998Y-63301447D01*
X174800946Y-63340484D01*
X174792182Y-63344949D01*
X174620213Y-63469890D01*
X174469890Y-63620213D01*
X174344951Y-63792179D01*
X174248444Y-63981585D01*
X174182753Y-64183760D01*
X174149500Y-64393713D01*
X174149500Y-64606286D01*
X174172508Y-64751557D01*
X174182754Y-64816243D01*
X174203627Y-64880484D01*
X174248444Y-65018414D01*
X174344951Y-65207820D01*
X174469890Y-65379786D01*
X174620213Y-65530109D01*
X174792182Y-65655050D01*
X174800946Y-65659516D01*
X174851742Y-65707491D01*
X174868536Y-65775312D01*
X174845998Y-65841447D01*
X174800946Y-65880484D01*
X174792182Y-65884949D01*
X174620213Y-66009890D01*
X174469890Y-66160213D01*
X174344951Y-66332179D01*
X174248444Y-66521585D01*
X174182753Y-66723760D01*
X174149500Y-66933713D01*
X174149500Y-67146286D01*
X174176667Y-67317816D01*
X174182754Y-67356243D01*
X174245872Y-67550500D01*
X174248444Y-67558414D01*
X174344951Y-67747820D01*
X174469890Y-67919786D01*
X174620213Y-68070109D01*
X174792179Y-68195048D01*
X174792181Y-68195049D01*
X174792184Y-68195051D01*
X174981588Y-68291557D01*
X175183757Y-68357246D01*
X175393713Y-68390500D01*
X175393714Y-68390500D01*
X175606286Y-68390500D01*
X175606287Y-68390500D01*
X175816243Y-68357246D01*
X176018412Y-68291557D01*
X176207816Y-68195051D01*
X176229789Y-68179086D01*
X176379786Y-68070109D01*
X176379788Y-68070106D01*
X176379792Y-68070104D01*
X176530104Y-67919792D01*
X176530106Y-67919788D01*
X176530109Y-67919786D01*
X176655048Y-67747820D01*
X176655047Y-67747820D01*
X176655051Y-67747816D01*
X176751557Y-67558412D01*
X176817246Y-67356243D01*
X176850500Y-67146287D01*
X176850500Y-66933713D01*
X176817246Y-66723757D01*
X176751557Y-66521588D01*
X176655051Y-66332184D01*
X176655049Y-66332181D01*
X176655048Y-66332179D01*
X176530109Y-66160213D01*
X176379786Y-66009890D01*
X176207820Y-65884951D01*
X176207115Y-65884591D01*
X176199054Y-65880485D01*
X176148259Y-65832512D01*
X176131463Y-65764692D01*
X176153999Y-65698556D01*
X176199054Y-65659515D01*
X176207816Y-65655051D01*
X176229789Y-65639086D01*
X176379786Y-65530109D01*
X176379788Y-65530106D01*
X176379792Y-65530104D01*
X176530104Y-65379792D01*
X176530106Y-65379788D01*
X176530109Y-65379786D01*
X176655048Y-65207820D01*
X176655047Y-65207820D01*
X176655051Y-65207816D01*
X176751557Y-65018412D01*
X176817246Y-64816243D01*
X176850500Y-64606287D01*
X176850500Y-64393713D01*
X176817246Y-64183757D01*
X176751557Y-63981588D01*
X176655051Y-63792184D01*
X176655049Y-63792181D01*
X176655048Y-63792179D01*
X176530109Y-63620213D01*
X176379786Y-63469890D01*
X176207820Y-63344951D01*
X176207115Y-63344591D01*
X176199054Y-63340485D01*
X176148259Y-63292512D01*
X176131463Y-63224692D01*
X176153999Y-63158556D01*
X176199054Y-63119515D01*
X176207816Y-63115051D01*
X176294713Y-63051917D01*
X176379786Y-62990109D01*
X176379788Y-62990106D01*
X176379792Y-62990104D01*
X176530104Y-62839792D01*
X176530106Y-62839788D01*
X176530109Y-62839786D01*
X176643462Y-62683767D01*
X176655051Y-62667816D01*
X176751557Y-62478412D01*
X176817246Y-62276243D01*
X176850500Y-62066287D01*
X176850500Y-61853713D01*
X176817246Y-61643757D01*
X176751557Y-61441588D01*
X176655051Y-61252184D01*
X176655049Y-61252181D01*
X176655048Y-61252179D01*
X176530109Y-61080213D01*
X176379786Y-60929890D01*
X176207820Y-60804951D01*
X176207115Y-60804591D01*
X176199054Y-60800485D01*
X176148259Y-60752512D01*
X176131463Y-60684692D01*
X176153999Y-60618556D01*
X176199054Y-60579515D01*
X176207816Y-60575051D01*
X176256923Y-60539373D01*
X176379786Y-60450109D01*
X176379788Y-60450106D01*
X176379792Y-60450104D01*
X176530104Y-60299792D01*
X176530106Y-60299788D01*
X176530109Y-60299786D01*
X176655048Y-60127820D01*
X176655047Y-60127820D01*
X176655051Y-60127816D01*
X176751557Y-59938412D01*
X176817246Y-59736243D01*
X176850500Y-59526287D01*
X176850500Y-59313713D01*
X176817246Y-59103757D01*
X176751557Y-58901588D01*
X176655051Y-58712184D01*
X176655049Y-58712181D01*
X176655048Y-58712179D01*
X176530109Y-58540213D01*
X176416181Y-58426285D01*
X176382696Y-58364962D01*
X176387680Y-58295270D01*
X176429552Y-58239337D01*
X176460529Y-58222422D01*
X176592086Y-58173354D01*
X176592093Y-58173350D01*
X176707187Y-58087190D01*
X176707190Y-58087187D01*
X176793350Y-57972093D01*
X176793354Y-57972086D01*
X176843596Y-57837379D01*
X176843598Y-57837372D01*
X176849999Y-57777844D01*
X176850000Y-57777827D01*
X176850000Y-57130000D01*
X175933012Y-57130000D01*
X175965925Y-57072993D01*
X176000000Y-56945826D01*
X176000000Y-56814174D01*
X175965925Y-56687007D01*
X175933012Y-56630000D01*
X176850000Y-56630000D01*
X176850000Y-55982172D01*
X176849999Y-55982155D01*
X176843598Y-55922627D01*
X176843596Y-55922620D01*
X176793354Y-55787913D01*
X176793350Y-55787906D01*
X176707190Y-55672812D01*
X176707187Y-55672809D01*
X176592093Y-55586649D01*
X176592086Y-55586645D01*
X176457379Y-55536403D01*
X176457372Y-55536401D01*
X176397844Y-55530000D01*
X175750000Y-55530000D01*
X175750000Y-56446988D01*
X175692993Y-56414075D01*
X175565826Y-56380000D01*
X175434174Y-56380000D01*
X175307007Y-56414075D01*
X175250000Y-56446988D01*
X175250000Y-55530000D01*
X174602155Y-55530000D01*
X174542627Y-55536401D01*
X174542620Y-55536403D01*
X174407913Y-55586645D01*
X174407906Y-55586649D01*
X174292812Y-55672809D01*
X174292809Y-55672812D01*
X174206649Y-55787906D01*
X174206645Y-55787913D01*
X174156403Y-55922620D01*
X174156401Y-55922627D01*
X174150000Y-55982155D01*
X174150000Y-56630000D01*
X175066988Y-56630000D01*
X175034075Y-56687007D01*
X175000000Y-56814174D01*
X175000000Y-56945826D01*
X175034075Y-57072993D01*
X175066988Y-57130000D01*
X174150000Y-57130000D01*
X174150000Y-57777844D01*
X174156401Y-57837372D01*
X174156403Y-57837379D01*
X174206645Y-57972086D01*
X174206649Y-57972093D01*
X174292809Y-58087187D01*
X174292812Y-58087190D01*
X174407906Y-58173350D01*
X174407913Y-58173354D01*
X174539470Y-58222422D01*
X174595404Y-58264293D01*
X174619821Y-58329758D01*
X174604969Y-58398031D01*
X174583819Y-58426285D01*
X174469889Y-58540215D01*
X174344951Y-58712179D01*
X174248444Y-58901585D01*
X174182753Y-59103760D01*
X174149500Y-59313713D01*
X120850000Y-59313713D01*
X120850000Y-58670000D01*
X119933012Y-58670000D01*
X119965925Y-58612993D01*
X120000000Y-58485826D01*
X120000000Y-58354174D01*
X119965925Y-58227007D01*
X119933012Y-58170000D01*
X120850000Y-58170000D01*
X120850000Y-57522172D01*
X120849999Y-57522155D01*
X120843598Y-57462627D01*
X120843596Y-57462620D01*
X120793354Y-57327913D01*
X120793350Y-57327906D01*
X120707190Y-57212812D01*
X120707187Y-57212809D01*
X120592093Y-57126649D01*
X120592086Y-57126645D01*
X120457379Y-57076403D01*
X120457372Y-57076401D01*
X120397844Y-57070000D01*
X119750000Y-57070000D01*
X119750000Y-57986988D01*
X119692993Y-57954075D01*
X119565826Y-57920000D01*
X119434174Y-57920000D01*
X119307007Y-57954075D01*
X119250000Y-57986988D01*
X119250000Y-57070000D01*
X118602155Y-57070000D01*
X118542627Y-57076401D01*
X118542620Y-57076403D01*
X118407913Y-57126645D01*
X118407906Y-57126649D01*
X118292812Y-57212809D01*
X118292809Y-57212812D01*
X118206649Y-57327906D01*
X118206645Y-57327913D01*
X118156403Y-57462620D01*
X118156401Y-57462627D01*
X118150000Y-57522155D01*
X118150000Y-58170000D01*
X119066988Y-58170000D01*
X119034075Y-58227007D01*
X119000000Y-58354174D01*
X119000000Y-58485826D01*
X119034075Y-58612993D01*
X119066988Y-58670000D01*
X118150000Y-58670000D01*
X118150000Y-59317844D01*
X118156401Y-59377372D01*
X118156403Y-59377379D01*
X118206645Y-59512086D01*
X118206649Y-59512093D01*
X118292809Y-59627187D01*
X118292812Y-59627190D01*
X118407906Y-59713350D01*
X118407913Y-59713354D01*
X118539470Y-59762422D01*
X118595404Y-59804293D01*
X118619821Y-59869758D01*
X118604969Y-59938031D01*
X118583819Y-59966285D01*
X118469889Y-60080215D01*
X118344951Y-60252179D01*
X118248444Y-60441585D01*
X118182753Y-60643760D01*
X118149500Y-60853713D01*
X117500500Y-60853713D01*
X117500500Y-56450000D01*
X151125000Y-56450000D01*
X153215000Y-56450000D01*
X153215000Y-54550000D01*
X151125000Y-54550000D01*
X151125000Y-56450000D01*
X117500500Y-56450000D01*
X117500500Y-49381902D01*
X121642046Y-49381902D01*
X121642046Y-49618097D01*
X121678992Y-49851368D01*
X121751979Y-50075996D01*
X121825954Y-50221178D01*
X121859203Y-50286433D01*
X121998029Y-50477510D01*
X122165036Y-50644517D01*
X122356113Y-50783343D01*
X122455537Y-50834002D01*
X122566549Y-50890566D01*
X122566551Y-50890566D01*
X122566554Y-50890568D01*
X122686958Y-50929689D01*
X122791177Y-50963553D01*
X123024449Y-51000500D01*
X123024454Y-51000500D01*
X123260643Y-51000500D01*
X123493914Y-50963553D01*
X123718538Y-50890568D01*
X123928979Y-50783343D01*
X124120056Y-50644517D01*
X124287063Y-50477510D01*
X124425889Y-50286433D01*
X124533114Y-50075992D01*
X124606099Y-49851368D01*
X124617998Y-49776243D01*
X124633362Y-49679240D01*
X124643046Y-49618097D01*
X124643046Y-49381902D01*
X124606099Y-49148631D01*
X124533112Y-48924003D01*
X124445565Y-48752184D01*
X124425889Y-48713567D01*
X124287063Y-48522490D01*
X124216728Y-48452155D01*
X142442546Y-48452155D01*
X142442546Y-49250000D01*
X143234305Y-49250000D01*
X143221368Y-49281233D01*
X143192546Y-49426131D01*
X143192546Y-49573869D01*
X143221368Y-49718767D01*
X143234305Y-49750000D01*
X142442546Y-49750000D01*
X142442546Y-50547844D01*
X142448947Y-50607372D01*
X142448949Y-50607379D01*
X142499191Y-50742086D01*
X142499195Y-50742093D01*
X142585355Y-50857187D01*
X142585358Y-50857190D01*
X142700452Y-50943350D01*
X142700459Y-50943354D01*
X142835166Y-50993596D01*
X142835173Y-50993598D01*
X142894701Y-50999999D01*
X142894718Y-51000000D01*
X143692546Y-51000000D01*
X143692546Y-50208240D01*
X143723779Y-50221178D01*
X143868677Y-50250000D01*
X144016415Y-50250000D01*
X144161313Y-50221178D01*
X144192546Y-50208240D01*
X144192546Y-51000000D01*
X144990374Y-51000000D01*
X144990390Y-50999999D01*
X145049918Y-50993598D01*
X145049925Y-50993596D01*
X145184632Y-50943354D01*
X145184639Y-50943350D01*
X145299733Y-50857190D01*
X145299736Y-50857187D01*
X145385896Y-50742093D01*
X145385900Y-50742086D01*
X145436142Y-50607379D01*
X145436144Y-50607372D01*
X145442545Y-50547844D01*
X145442546Y-50547827D01*
X145442546Y-49750000D01*
X144650787Y-49750000D01*
X144663724Y-49718767D01*
X144692546Y-49573869D01*
X144692546Y-49426131D01*
X144663724Y-49281233D01*
X144650787Y-49250000D01*
X145442546Y-49250000D01*
X145442546Y-48452172D01*
X145442545Y-48452155D01*
X145436144Y-48392627D01*
X145436142Y-48392619D01*
X145385901Y-48257916D01*
X145385896Y-48257906D01*
X145354696Y-48216228D01*
X172449500Y-48216228D01*
X172449500Y-48383771D01*
X172482182Y-48548074D01*
X172482184Y-48548082D01*
X172546295Y-48702860D01*
X172639373Y-48842162D01*
X172757837Y-48960626D01*
X172849545Y-49021903D01*
X172897137Y-49053703D01*
X173051918Y-49117816D01*
X173206837Y-49148631D01*
X173216228Y-49150499D01*
X173216232Y-49150500D01*
X173216233Y-49150500D01*
X173383768Y-49150500D01*
X173383769Y-49150499D01*
X173548082Y-49117816D01*
X173702863Y-49053703D01*
X173842162Y-48960626D01*
X173960626Y-48842162D01*
X174053703Y-48702863D01*
X174117816Y-48548082D01*
X174150500Y-48383767D01*
X174150500Y-48216233D01*
X174117816Y-48051918D01*
X174053703Y-47897137D01*
X173971398Y-47773959D01*
X173950520Y-47707281D01*
X173950500Y-47705068D01*
X173950500Y-47402611D01*
X173956131Y-47383431D01*
X173956845Y-47363453D01*
X173965774Y-47350591D01*
X173970185Y-47335572D01*
X173985290Y-47322482D01*
X173996693Y-47306060D01*
X174020643Y-47291849D01*
X174022989Y-47289817D01*
X174027028Y-47288058D01*
X174055191Y-47276392D01*
X174124658Y-47268924D01*
X174187137Y-47300199D01*
X174220572Y-47352634D01*
X174248443Y-47438412D01*
X174248444Y-47438414D01*
X174344951Y-47627820D01*
X174469890Y-47799786D01*
X174620213Y-47950109D01*
X174792182Y-48075050D01*
X174800946Y-48079516D01*
X174851742Y-48127491D01*
X174868536Y-48195312D01*
X174845998Y-48261447D01*
X174800946Y-48300484D01*
X174792182Y-48304949D01*
X174620213Y-48429890D01*
X174469890Y-48580213D01*
X174344951Y-48752179D01*
X174248444Y-48941585D01*
X174182753Y-49143760D01*
X174149500Y-49353713D01*
X174149500Y-49566286D01*
X174182753Y-49776239D01*
X174248444Y-49978414D01*
X174344951Y-50167820D01*
X174469890Y-50339786D01*
X174620213Y-50490109D01*
X174792182Y-50615050D01*
X174800946Y-50619516D01*
X174851742Y-50667491D01*
X174868536Y-50735312D01*
X174845998Y-50801447D01*
X174800946Y-50840484D01*
X174792182Y-50844949D01*
X174620213Y-50969890D01*
X174469890Y-51120213D01*
X174344951Y-51292179D01*
X174248444Y-51481585D01*
X174182753Y-51683760D01*
X174149500Y-51893713D01*
X174149500Y-52106286D01*
X174182753Y-52316239D01*
X174248444Y-52518414D01*
X174344951Y-52707820D01*
X174469890Y-52879786D01*
X174620213Y-53030109D01*
X174792179Y-53155048D01*
X174792181Y-53155049D01*
X174792184Y-53155051D01*
X174981588Y-53251557D01*
X175183757Y-53317246D01*
X175393713Y-53350500D01*
X175393714Y-53350500D01*
X175606286Y-53350500D01*
X175606287Y-53350500D01*
X175816243Y-53317246D01*
X176018412Y-53251557D01*
X176207816Y-53155051D01*
X176229789Y-53139086D01*
X176379786Y-53030109D01*
X176379788Y-53030106D01*
X176379792Y-53030104D01*
X176530104Y-52879792D01*
X176530106Y-52879788D01*
X176530109Y-52879786D01*
X176655048Y-52707820D01*
X176655047Y-52707820D01*
X176655051Y-52707816D01*
X176751557Y-52518412D01*
X176817246Y-52316243D01*
X176850500Y-52106287D01*
X176850500Y-51893713D01*
X176817246Y-51683757D01*
X176751557Y-51481588D01*
X176655051Y-51292184D01*
X176655049Y-51292181D01*
X176655048Y-51292179D01*
X176530109Y-51120213D01*
X176379786Y-50969890D01*
X176207820Y-50844951D01*
X176207115Y-50844591D01*
X176199054Y-50840485D01*
X176148259Y-50792512D01*
X176131463Y-50724692D01*
X176153999Y-50658556D01*
X176199054Y-50619515D01*
X176207816Y-50615051D01*
X176229789Y-50599086D01*
X176379786Y-50490109D01*
X176379788Y-50490106D01*
X176379792Y-50490104D01*
X176530104Y-50339792D01*
X176530106Y-50339788D01*
X176530109Y-50339786D01*
X176655048Y-50167820D01*
X176655047Y-50167820D01*
X176655051Y-50167816D01*
X176751557Y-49978412D01*
X176817246Y-49776243D01*
X176850500Y-49566287D01*
X176850500Y-49353713D01*
X176817246Y-49143757D01*
X176751557Y-48941588D01*
X176655051Y-48752184D01*
X176655049Y-48752181D01*
X176655048Y-48752179D01*
X176530109Y-48580213D01*
X176379786Y-48429890D01*
X176207820Y-48304951D01*
X176207115Y-48304591D01*
X176199054Y-48300485D01*
X176148259Y-48252512D01*
X176131463Y-48184692D01*
X176153999Y-48118556D01*
X176199054Y-48079515D01*
X176207816Y-48075051D01*
X176239656Y-48051918D01*
X176379786Y-47950109D01*
X176379788Y-47950106D01*
X176379792Y-47950104D01*
X176530104Y-47799792D01*
X176530106Y-47799788D01*
X176530109Y-47799786D01*
X176655048Y-47627820D01*
X176655047Y-47627820D01*
X176655051Y-47627816D01*
X176751557Y-47438412D01*
X176817246Y-47236243D01*
X176850500Y-47026287D01*
X176850500Y-46813713D01*
X176817246Y-46603757D01*
X176751557Y-46401588D01*
X176655051Y-46212184D01*
X176655049Y-46212181D01*
X176655048Y-46212179D01*
X176530109Y-46040213D01*
X176379786Y-45889890D01*
X176207820Y-45764951D01*
X176207115Y-45764591D01*
X176199054Y-45760485D01*
X176148259Y-45712512D01*
X176131463Y-45644692D01*
X176153999Y-45578556D01*
X176199054Y-45539515D01*
X176207816Y-45535051D01*
X176229789Y-45519086D01*
X176379786Y-45410109D01*
X176379788Y-45410106D01*
X176379792Y-45410104D01*
X176530104Y-45259792D01*
X176530106Y-45259788D01*
X176530109Y-45259786D01*
X176655048Y-45087820D01*
X176655047Y-45087820D01*
X176655051Y-45087816D01*
X176751557Y-44898412D01*
X176817246Y-44696243D01*
X176850500Y-44486287D01*
X176850500Y-44273713D01*
X176817246Y-44063757D01*
X176751557Y-43861588D01*
X176655051Y-43672184D01*
X176655049Y-43672181D01*
X176655048Y-43672179D01*
X176530109Y-43500213D01*
X176416181Y-43386285D01*
X176382696Y-43324962D01*
X176387680Y-43255270D01*
X176429552Y-43199337D01*
X176460529Y-43182422D01*
X176592086Y-43133354D01*
X176592093Y-43133350D01*
X176707187Y-43047190D01*
X176707190Y-43047187D01*
X176793350Y-42932093D01*
X176793354Y-42932086D01*
X176843596Y-42797379D01*
X176843598Y-42797372D01*
X176849999Y-42737844D01*
X176850000Y-42737827D01*
X176850000Y-42090000D01*
X175933012Y-42090000D01*
X175965925Y-42032993D01*
X176000000Y-41905826D01*
X176000000Y-41774174D01*
X175965925Y-41647007D01*
X175933012Y-41590000D01*
X176850000Y-41590000D01*
X176850000Y-40942172D01*
X176849999Y-40942155D01*
X176843598Y-40882627D01*
X176843596Y-40882620D01*
X176793354Y-40747913D01*
X176793350Y-40747906D01*
X176707190Y-40632812D01*
X176707187Y-40632809D01*
X176592093Y-40546649D01*
X176592086Y-40546645D01*
X176457379Y-40496403D01*
X176457372Y-40496401D01*
X176397844Y-40490000D01*
X175750000Y-40490000D01*
X175750000Y-41406988D01*
X175692993Y-41374075D01*
X175565826Y-41340000D01*
X175434174Y-41340000D01*
X175307007Y-41374075D01*
X175250000Y-41406988D01*
X175250000Y-40490000D01*
X174602155Y-40490000D01*
X174542627Y-40496401D01*
X174542620Y-40496403D01*
X174407913Y-40546645D01*
X174407906Y-40546649D01*
X174292812Y-40632809D01*
X174292809Y-40632812D01*
X174206649Y-40747906D01*
X174206645Y-40747913D01*
X174156403Y-40882620D01*
X174156401Y-40882627D01*
X174150000Y-40942155D01*
X174150000Y-41590000D01*
X175066988Y-41590000D01*
X175034075Y-41647007D01*
X175000000Y-41774174D01*
X175000000Y-41905826D01*
X175034075Y-42032993D01*
X175066988Y-42090000D01*
X174150000Y-42090000D01*
X174150000Y-42737844D01*
X174156401Y-42797372D01*
X174156403Y-42797379D01*
X174206645Y-42932086D01*
X174206649Y-42932093D01*
X174292809Y-43047187D01*
X174292812Y-43047190D01*
X174407906Y-43133350D01*
X174407913Y-43133354D01*
X174539470Y-43182422D01*
X174595404Y-43224293D01*
X174619821Y-43289758D01*
X174604969Y-43358031D01*
X174583819Y-43386285D01*
X174469889Y-43500215D01*
X174344951Y-43672179D01*
X174248444Y-43861585D01*
X174182753Y-44063760D01*
X174149500Y-44273713D01*
X174149500Y-44486286D01*
X174182753Y-44696239D01*
X174248444Y-44898414D01*
X174344951Y-45087820D01*
X174469890Y-45259786D01*
X174620213Y-45410109D01*
X174792182Y-45535050D01*
X174800946Y-45539516D01*
X174851742Y-45587491D01*
X174868536Y-45655312D01*
X174845998Y-45721447D01*
X174800946Y-45760484D01*
X174792182Y-45764949D01*
X174620215Y-45889889D01*
X174538725Y-45971379D01*
X174477401Y-46004863D01*
X174407710Y-45999879D01*
X174360745Y-45966333D01*
X174359909Y-45967170D01*
X174237137Y-45844398D01*
X174097835Y-45751320D01*
X173943057Y-45687209D01*
X173943049Y-45687207D01*
X173778746Y-45654525D01*
X173778742Y-45654525D01*
X173611208Y-45654525D01*
X173611203Y-45654525D01*
X173446900Y-45687207D01*
X173446892Y-45687209D01*
X173292114Y-45751320D01*
X173152812Y-45844398D01*
X173034348Y-45962862D01*
X172941270Y-46102164D01*
X172877159Y-46256942D01*
X172877157Y-46256948D01*
X172848256Y-46402243D01*
X172815871Y-46464154D01*
X172814322Y-46465730D01*
X172794724Y-46485328D01*
X172738755Y-46569092D01*
X172738756Y-46569093D01*
X172723536Y-46591871D01*
X172723533Y-46591877D01*
X172674499Y-46710255D01*
X172674497Y-46710261D01*
X172649500Y-46835928D01*
X172649500Y-47705068D01*
X172629815Y-47772107D01*
X172628602Y-47773959D01*
X172546295Y-47897139D01*
X172482184Y-48051917D01*
X172482182Y-48051925D01*
X172449500Y-48216228D01*
X145354696Y-48216228D01*
X145299736Y-48142812D01*
X145299733Y-48142809D01*
X145184639Y-48056649D01*
X145184632Y-48056645D01*
X145049925Y-48006403D01*
X145049918Y-48006401D01*
X144990390Y-48000000D01*
X144192546Y-48000000D01*
X144192546Y-48791759D01*
X144161313Y-48778822D01*
X144016415Y-48750000D01*
X143868677Y-48750000D01*
X143723779Y-48778822D01*
X143692546Y-48791759D01*
X143692546Y-48000000D01*
X142894701Y-48000000D01*
X142835173Y-48006401D01*
X142835166Y-48006403D01*
X142700459Y-48056645D01*
X142700452Y-48056649D01*
X142585358Y-48142809D01*
X142585355Y-48142812D01*
X142499195Y-48257906D01*
X142499191Y-48257913D01*
X142448949Y-48392620D01*
X142448947Y-48392627D01*
X142442546Y-48452155D01*
X124216728Y-48452155D01*
X124120056Y-48355483D01*
X123928979Y-48216657D01*
X123876662Y-48190000D01*
X123718542Y-48109433D01*
X123493914Y-48036446D01*
X123260643Y-47999500D01*
X123260638Y-47999500D01*
X123024454Y-47999500D01*
X123024449Y-47999500D01*
X122791177Y-48036446D01*
X122566549Y-48109433D01*
X122356112Y-48216657D01*
X122299329Y-48257913D01*
X122165036Y-48355483D01*
X122165034Y-48355485D01*
X122165033Y-48355485D01*
X121998031Y-48522487D01*
X121998031Y-48522488D01*
X121998029Y-48522490D01*
X121956094Y-48580208D01*
X121859203Y-48713566D01*
X121751979Y-48924003D01*
X121678992Y-49148631D01*
X121642046Y-49381902D01*
X117500500Y-49381902D01*
X117500500Y-37624500D01*
X117520185Y-37557461D01*
X117572989Y-37511706D01*
X117624500Y-37500500D01*
X177375500Y-37500500D01*
X177442539Y-37520185D01*
G37*
%TD.AperFunction*%
%TD*%
M02*
