M48
; DRILL file {KiCad 9.0.7} date 2026-02-24T21:01:36+0100
; FORMAT={-:-/ absolute / metric / decimal}
; #@! TF.CreationDate,2026-02-24T21:01:36+01:00
; #@! TF.GenerationSoftware,Kicad,Pcbnew,9.0.7
; #@! TF.FileFunction,MixedPlating,1,2
FMAT,2
METRIC
; #@! TA.AperFunction,Plated,PTH,ViaDrill
T1C0.300
; #@! TA.AperFunction,Plated,PTH,ComponentDrill
T2C0.500
; #@! TA.AperFunction,Plated,PTH,ComponentDrill
T3C0.550
; #@! TA.AperFunction,Plated,PTH,ComponentDrill
T4C1.000
; #@! TA.AperFunction,Plated,PTH,ComponentDrill
T5C1.500
%
G90
G05
T1
X119.99Y-88.59
X120.0Y-85.53
X120.0Y-91.19
X121.9Y-61.9
X121.9Y-63.3
X121.9Y-65.3
X121.9Y-66.7
X122.28Y-86.405
X122.29Y-90.13
X124.6Y-62.6
X124.72Y-84.069
X124.74Y-82.64
X125.0Y-72.0
X125.2Y-58.0
X125.21Y-92.43
X125.6Y-80.6
X127.14Y-82.64
X127.14Y-84.23
X127.2Y-62.0
X127.5Y-81.2
X131.5Y-88.5
X131.5Y-90.1
X131.7Y-81.8
X131.8Y-84.4
X132.9Y-76.0
X133.2Y-81.8
X133.2Y-84.3
X133.7Y-61.2
X133.7Y-63.4
X134.4Y-71.8
X136.3Y-86.0
X136.3Y-90.02
X137.7Y-64.1
X138.2Y-82.0
X138.445Y-77.611
X138.7Y-91.7
X138.8Y-87.1
X139.65Y-73.223
X139.7Y-75.0
X140.303Y-74.201
X140.4Y-82.669
X140.4Y-84.2
X140.632Y-68.07
X140.8Y-91.7
X140.9Y-72.3
X141.1Y-69.3
X141.1Y-87.1
X141.17Y-94.97
X141.2Y-52.7
X141.2Y-73.7
X142.3Y-74.8
X142.4Y-51.0
X142.9Y-88.6
X143.0Y-85.8
X143.4Y-59.6
X143.5Y-74.4
X143.8Y-52.7
X144.0Y-80.336
X144.4Y-62.6
X144.6Y-64.9
X144.7Y-76.8
X144.7Y-79.7
X144.8Y-59.5
X145.2Y-69.3
X145.3Y-51.1
X145.3Y-63.7
X145.5Y-80.5
X145.6Y-87.2
X145.6Y-89.4
X145.8Y-61.0
X145.8Y-76.8
X145.9Y-58.0
X146.4Y-62.4
X146.4Y-64.9
X146.6Y-49.3
X146.6Y-52.8
X146.9Y-59.5
X147.0Y-76.8
X147.2Y-56.6
X147.3Y-86.0
X147.7Y-63.8
X147.8Y-61.0
X147.9Y-47.9
X147.9Y-51.1
X148.1Y-69.6
X148.2Y-58.0
X148.5Y-54.7
X148.8Y-64.9
X148.8Y-66.0
X148.86Y-88.46
X149.3Y-52.8
X149.3Y-62.5
X149.4Y-49.3
X149.4Y-59.5
X149.6Y-56.4
X150.5Y-58.5
X150.6Y-66.0
X150.7Y-47.9
X150.7Y-51.1
X150.7Y-63.8
X150.75Y-93.77
X151.2Y-61.0
X152.0Y-49.3
X152.0Y-52.8
X152.1Y-59.5
X152.1Y-77.3
X152.7Y-62.5
X152.7Y-64.8
X152.7Y-66.0
X152.8Y-90.95
X152.8Y-92.4
X153.1Y-47.9
X153.1Y-51.2
X153.3Y-76.3
X154.2Y-52.8
X154.3Y-49.3
X154.3Y-63.7
X154.399Y-70.598
X154.4Y-66.35
X154.7Y-54.7
X154.7Y-56.3
X154.7Y-57.5
X154.7Y-59.3
X154.7Y-61.2
X155.6Y-66.35
X155.6Y-70.6
X155.8Y-57.6
X156.2Y-60.2
X156.2Y-62.2
X157.1Y-57.5
X157.4Y-54.3
X157.4Y-56.5
X157.7Y-46.5
X157.8Y-43.6
X157.8Y-49.2
X157.8Y-52.2
X157.8Y-59.3
X157.8Y-60.9
X157.9Y-88.54
X158.8Y-42.2
X158.8Y-44.7
X158.8Y-47.5
X158.8Y-50.5
X158.8Y-58.0
X158.9Y-53.4
X158.9Y-55.9
X159.4Y-72.7
X159.5Y-69.4
X159.9Y-60.7
X160.1Y-49.2
X160.1Y-52.2
X160.2Y-43.6
X160.2Y-46.5
X160.2Y-54.9
X160.2Y-57.1
X160.2Y-59.4
X160.3Y-73.9
X160.3Y-76.2
X161.1Y-72.7
X161.4Y-42.2
X161.4Y-44.8
X161.4Y-47.5
X161.4Y-50.5
X161.4Y-53.4
X161.4Y-55.9
X161.6Y-58.0
X162.2Y-60.7
X162.6Y-84.0
X162.7Y-59.5
X162.8Y-52.1
X162.9Y-54.8
X162.9Y-56.9
X163.0Y-43.6
X163.0Y-46.5
X163.0Y-49.2
X164.1Y-42.2
X164.1Y-44.8
X164.1Y-47.7
X164.1Y-50.5
X164.1Y-53.5
X164.1Y-55.9
X164.1Y-58.0
X164.2Y-38.3
X164.7Y-60.7
X165.1Y-59.4
X165.1Y-75.1
X165.2Y-56.9
X165.3Y-54.8
X165.5Y-49.2
X165.5Y-52.1
X165.8Y-46.6
X166.4Y-58.1
X166.6Y-41.5
X166.6Y-42.5
X166.6Y-56.5
X166.6Y-57.3
X166.7Y-38.3
X167.2Y-60.6
X167.3Y-59.4
X167.5Y-57.3
X167.9Y-66.5
X168.3Y-58.1
X168.4Y-79.8
X168.5Y-57.3
X168.7Y-40.5
X169.7Y-40.5
X169.7Y-41.6
X170.4Y-79.8
X170.6Y-66.5
X170.8Y-40.5
X170.8Y-41.6
X172.1Y-41.0
X173.3Y-48.3
X173.4Y-41.1
X173.4Y-42.3
X173.4Y-89.4
X173.4Y-90.2
X173.695Y-46.505
X174.8Y-89.4
T4
X119.5Y-58.42
X119.5Y-60.96
X119.5Y-63.5
X119.5Y-66.04
X136.27Y-96.4
X138.81Y-96.4
X143.56Y-96.375
X146.1Y-96.375
X151.06Y-96.4
X153.6Y-96.4
X175.5Y-41.84
X175.5Y-44.38
X175.5Y-46.92
X175.5Y-49.46
X175.5Y-52.0
X175.5Y-56.88
X175.5Y-59.42
X175.5Y-61.96
X175.5Y-64.5
X175.5Y-67.04
T5
X123.143Y-49.5
X143.943Y-49.5
T2
G00X174.675Y-71.2
M15
G01X175.325Y-71.2
M16
G05
G00X174.675Y-78.2
M15
G01X175.325Y-78.2
M16
G05
T3
G00X172.3Y-72.35
M15
G01X172.3Y-72.05
M16
G05
G00X172.3Y-77.35
M15
G01X172.3Y-77.05
M16
G05
M30
